<svg xmlns="http://www.w3.org/2000/svg" xmlns:xlink="http://www.w3.org/1999/xlink" width="500" zoomAndPan="magnify" viewBox="0 0 375 374.999991" height="500" preserveAspectRatio="xMidYMid meet" version="1.0"><defs><g/></defs><rect x="-37.5" width="450" fill="#ffffff" y="-37.499999" height="449.999989" fill-opacity="1"/><rect x="-37.5" width="450" fill="#f6fbff" y="-37.499999" height="449.999989" fill-opacity="1"/><g fill="#aabf62" fill-opacity="0.5412"><g transform="translate(6.567385, 219.088854)"><g><path d="M 51.21875 -66.390625 C 51.21875 -66.066406 51.164062 -65.21875 51.0625 -63.84375 C 50.96875 -62.46875 50.921875 -60.769531 50.921875 -58.75 C 50.921875 -56.925781 51.019531 -54.445312 51.21875 -51.3125 C 51.21875 -49.550781 50.070312 -48.671875 47.78125 -48.671875 L 30.546875 -48.671875 L 30.359375 -38.578125 C 30.296875 -37.472656 30.265625 -34.703125 30.265625 -30.265625 C 30.265625 -25.691406 30.296875 -21.25 30.359375 -16.9375 C 30.421875 -12.632812 30.453125 -8.914062 30.453125 -5.78125 L 30.546875 -1.765625 L 30.546875 -1.265625 C 30.546875 -0.679688 30.460938 -0.320312 30.296875 -0.1875 C 30.140625 -0.0625 29.929688 0 29.671875 0 C 29.410156 0 29.210938 0 29.078125 0 L 22.421875 0 C 21.640625 0 21.179688 -0.128906 21.046875 -0.390625 C 20.921875 -0.648438 20.859375 -1.125 20.859375 -1.8125 C 20.859375 -2.5 20.859375 -3.003906 20.859375 -3.328125 L 21.25 -15.46875 C 21.644531 -26.039062 21.84375 -32.832031 21.84375 -35.84375 C 21.84375 -37.539062 21.773438 -40.085938 21.640625 -43.484375 L 21.546875 -48.671875 C 16.847656 -48.671875 12.082031 -48.601562 7.25 -48.46875 L 4.203125 -48.375 C 3.359375 -48.375 2.769531 -48.601562 2.4375 -49.0625 C 2.113281 -49.519531 2.050781 -50.039062 2.25 -50.625 L 2.34375 -53.078125 C 2.476562 -56.859375 2.546875 -60.347656 2.546875 -63.546875 C 2.546875 -65.117188 2.515625 -66.066406 2.453125 -66.390625 L 2.453125 -67.078125 C 2.453125 -67.796875 2.597656 -68.21875 2.890625 -68.34375 C 3.179688 -68.476562 3.617188 -68.546875 4.203125 -68.546875 L 13.90625 -68.546875 L 19.390625 -68.640625 C 22.785156 -68.773438 25.164062 -68.84375 26.53125 -68.84375 L 32.40625 -68.734375 C 37.113281 -68.609375 40.804688 -68.546875 43.484375 -68.546875 C 45.441406 -68.546875 46.710938 -68.578125 47.296875 -68.640625 C 48.734375 -68.703125 49.742188 -68.488281 50.328125 -68 C 50.921875 -67.507812 51.21875 -66.972656 51.21875 -66.390625 Z M 51.21875 -66.390625 "/></g></g></g><g fill="#aabf62" fill-opacity="0.5412"><g transform="translate(59.637125, 219.088854)"><g><path d="M 42.796875 -68.34375 C 46.710938 -65.738281 49.859375 -62.210938 52.234375 -57.765625 C 54.617188 -53.328125 56.285156 -49.003906 57.234375 -44.796875 C 58.179688 -40.585938 58.65625 -37.273438 58.65625 -34.859375 C 58.65625 -30.804688 58.019531 -26.101562 56.75 -20.75 C 55.476562 -15.40625 52.75 -10.429688 48.5625 -5.828125 C 44.382812 -1.222656 38.347656 1.078125 30.453125 1.078125 C 19.617188 1.078125 11.914062 -5.222656 7.34375 -17.828125 C 5.320312 -23.503906 4.179688 -29.832031 3.921875 -36.8125 C 3.921875 -42.5625 5.125 -48.03125 7.53125 -53.21875 C 9.945312 -58.40625 13.128906 -62.566406 17.078125 -65.703125 C 21.035156 -68.835938 25.101562 -70.40625 29.28125 -70.40625 C 33.0625 -70.40625 35.882812 -70.304688 37.75 -70.109375 C 39.613281 -69.910156 41.296875 -69.320312 42.796875 -68.34375 Z M 29.96875 -4.40625 C 36.882812 -4.40625 42.039062 -7.289062 45.4375 -13.0625 C 48.832031 -18.84375 50.53125 -26.109375 50.53125 -34.859375 C 50.53125 -40.210938 49.726562 -45.15625 48.125 -49.6875 C 46.53125 -54.226562 44.28125 -57.851562 41.375 -60.5625 C 38.46875 -63.269531 35.117188 -64.625 31.328125 -64.625 C 31.003906 -64.625 30.140625 -64.625 28.734375 -64.625 C 27.335938 -64.625 26.113281 -64.394531 25.0625 -63.9375 C 24.019531 -63.476562 23.078125 -62.796875 22.234375 -61.890625 C 20.078125 -59.734375 18.265625 -57.753906 16.796875 -55.953125 C 15.328125 -54.160156 13.859375 -51.5 12.390625 -47.96875 C 10.921875 -44.445312 10.1875 -40.367188 10.1875 -35.734375 C 10.1875 -30.253906 10.851562 -25.144531 12.1875 -20.40625 C 13.53125 -15.675781 15.671875 -11.828125 18.609375 -8.859375 C 21.546875 -5.890625 25.332031 -4.40625 29.96875 -4.40625 Z M 29.96875 -4.40625 "/></g></g></g><g fill="#aabf62" fill-opacity="0.5412"><g transform="translate(122.204589, 219.088854)"><g><path d="M 33.59375 -61 C 33.59375 -65.050781 33.625 -67.566406 33.6875 -68.546875 C 33.6875 -69.785156 34.109375 -70.535156 34.953125 -70.796875 C 35.804688 -71.054688 37.046875 -71.1875 38.671875 -71.1875 C 40.109375 -71.1875 41.953125 -71.265625 44.203125 -71.421875 C 46.460938 -71.585938 48.210938 -71.769531 49.453125 -71.96875 C 50.367188 -72.039062 51.019531 -71.894531 51.40625 -71.53125 C 51.800781 -71.175781 52 -70.570312 52 -69.71875 C 52 -69.457031 51.929688 -68.738281 51.796875 -67.5625 C 51.671875 -66.582031 51.609375 -60.085938 51.609375 -48.078125 L 51.609375 -25.953125 C 51.609375 -22.617188 51.65625 -18.941406 51.75 -14.921875 C 51.851562 -10.910156 51.96875 -7.304688 52.09375 -4.109375 C 52.226562 -0.910156 52.296875 -0.03125 52.296875 -1.46875 C 52.296875 -0.425781 51.769531 0.09375 50.71875 0.09375 C 50.257812 0.09375 49.867188 0.0625 49.546875 0 C 49.285156 -0.0625 48.765625 -0.09375 47.984375 -0.09375 C 47.203125 -0.09375 45.960938 -0.03125 44.265625 0.09375 C 42.429688 0.226562 41.15625 0.296875 40.4375 0.296875 C 39.195312 0.296875 38.265625 0.0351562 37.640625 -0.484375 C 37.023438 -1.003906 36.390625 -1.953125 35.734375 -3.328125 L 34.078125 -6.65625 C 32.117188 -11.03125 30.390625 -14.457031 28.890625 -16.9375 C 28.035156 -18.375 25.878906 -22.320312 22.421875 -28.78125 L 18.109375 -36.921875 L 18.109375 -30.9375 C 18.109375 -30.414062 18.09375 -29.765625 18.0625 -28.984375 C 18.03125 -28.203125 18.046875 -27.320312 18.109375 -26.34375 C 18.109375 -22.945312 18.15625 -18.503906 18.25 -13.015625 C 18.351562 -7.535156 18.503906 -4.242188 18.703125 -3.140625 C 18.765625 -2.804688 18.796875 -2.410156 18.796875 -1.953125 C 18.796875 -1.304688 18.664062 -0.898438 18.40625 -0.734375 C 18.144531 -0.566406 17.65625 -0.519531 16.9375 -0.59375 C 15.894531 -0.59375 14.671875 -0.523438 13.265625 -0.390625 C 11.859375 -0.265625 10.535156 -0.132812 9.296875 0 C 8.316406 0.132812 7.679688 -0.0234375 7.390625 -0.484375 C 7.097656 -0.941406 6.984375 -1.957031 7.046875 -3.53125 C 7.046875 -5.875 6.945312 -10.019531 6.75 -15.96875 C 6.488281 -22.164062 6.328125 -27.550781 6.265625 -32.125 C 6.265625 -36.757812 6.363281 -41.457031 6.5625 -46.21875 C 6.6875 -52.226562 6.75 -56.34375 6.75 -58.5625 C 6.75 -61.5625 6.65625 -63.75 6.46875 -65.125 C 6.332031 -66.289062 6.265625 -67.039062 6.265625 -67.375 C 6.265625 -68.550781 6.457031 -69.347656 6.84375 -69.765625 C 7.238281 -70.191406 7.765625 -70.40625 8.421875 -70.40625 C 8.742188 -70.40625 9.394531 -70.390625 10.375 -70.359375 C 11.351562 -70.328125 12.757812 -70.539062 14.59375 -71 C 15.3125 -71.125 16.03125 -71.1875 16.75 -71.1875 C 17.132812 -71.1875 17.6875 -71.15625 18.40625 -71.09375 C 19.125 -71.03125 20.070312 -71 21.25 -71 C 22.75 -71 24.003906 -70.410156 25.015625 -69.234375 C 26.023438 -68.054688 27.117188 -66.390625 28.296875 -64.234375 L 29.28125 -62.46875 C 30.0625 -61.03125 31.007812 -59.5 32.125 -57.875 L 33.59375 -55.625 Z M 33.59375 -61 "/></g></g></g><g fill="#aabf62" fill-opacity="0.5412"><g transform="translate(180.659633, 219.088854)"><g><path d="M 9.109375 -69.03125 C 9.953125 -68.96875 10.78125 -68.953125 11.59375 -68.984375 C 12.414062 -69.015625 13.117188 -69.03125 13.703125 -69.03125 C 15.140625 -69.03125 16.1875 -69 16.84375 -68.9375 C 17.625 -68.875 18.175781 -68.710938 18.5 -68.453125 C 18.832031 -68.191406 19 -67.832031 19 -67.375 C 19 -67.039062 18.960938 -66.675781 18.890625 -66.28125 C 18.828125 -65.894531 18.765625 -65.539062 18.703125 -65.21875 C 17.984375 -59.664062 17.59375 -53.953125 17.53125 -48.078125 C 17.46875 -46.378906 17.4375 -43.769531 17.4375 -40.25 L 17.53125 -28.390625 C 17.59375 -27.410156 17.625 -26.398438 17.625 -25.359375 L 17.71875 -21.4375 C 17.851562 -18.050781 17.921875 -15.539062 17.921875 -13.90625 C 17.921875 -12.664062 17.890625 -11.914062 17.828125 -11.65625 C 17.753906 -11.394531 17.71875 -10.644531 17.71875 -9.40625 L 17.828125 -4.015625 C 17.890625 -3.234375 17.921875 -2.253906 17.921875 -1.078125 C 17.984375 -0.222656 17.738281 0.3125 17.1875 0.53125 C 16.632812 0.757812 15.898438 0.84375 14.984375 0.78125 L 6.078125 0.78125 C 5.097656 0.84375 4.472656 0.628906 4.203125 0.140625 C 3.941406 -0.347656 3.78125 -1.144531 3.71875 -2.25 C 3.59375 -2.707031 3.660156 -3.914062 3.921875 -5.875 C 4.179688 -7.695312 4.3125 -9.265625 4.3125 -10.578125 C 4.3125 -11.035156 4.539062 -15.441406 5 -23.796875 C 5.382812 -29.929688 5.578125 -33.289062 5.578125 -33.875 L 5.78125 -43.484375 L 5.96875 -52.390625 L 6.171875 -57.671875 L 6.359375 -61.203125 L 6.359375 -65.3125 C 6.359375 -67.863281 7.015625 -69.140625 8.328125 -69.140625 C 8.648438 -69.140625 8.910156 -69.101562 9.109375 -69.03125 Z M 9.109375 -69.03125 "/></g></g></g><g fill="#aabf62" fill-opacity="0.5412"><g transform="translate(204.452901, 219.088854)"><g><path d="M 33.59375 -61 C 33.59375 -65.050781 33.625 -67.566406 33.6875 -68.546875 C 33.6875 -69.785156 34.109375 -70.535156 34.953125 -70.796875 C 35.804688 -71.054688 37.046875 -71.1875 38.671875 -71.1875 C 40.109375 -71.1875 41.953125 -71.265625 44.203125 -71.421875 C 46.460938 -71.585938 48.210938 -71.769531 49.453125 -71.96875 C 50.367188 -72.039062 51.019531 -71.894531 51.40625 -71.53125 C 51.800781 -71.175781 52 -70.570312 52 -69.71875 C 52 -69.457031 51.929688 -68.738281 51.796875 -67.5625 C 51.671875 -66.582031 51.609375 -60.085938 51.609375 -48.078125 L 51.609375 -25.953125 C 51.609375 -22.617188 51.65625 -18.941406 51.75 -14.921875 C 51.851562 -10.910156 51.96875 -7.304688 52.09375 -4.109375 C 52.226562 -0.910156 52.296875 -0.03125 52.296875 -1.46875 C 52.296875 -0.425781 51.769531 0.09375 50.71875 0.09375 C 50.257812 0.09375 49.867188 0.0625 49.546875 0 C 49.285156 -0.0625 48.765625 -0.09375 47.984375 -0.09375 C 47.203125 -0.09375 45.960938 -0.03125 44.265625 0.09375 C 42.429688 0.226562 41.15625 0.296875 40.4375 0.296875 C 39.195312 0.296875 38.265625 0.0351562 37.640625 -0.484375 C 37.023438 -1.003906 36.390625 -1.953125 35.734375 -3.328125 L 34.078125 -6.65625 C 32.117188 -11.03125 30.390625 -14.457031 28.890625 -16.9375 C 28.035156 -18.375 25.878906 -22.320312 22.421875 -28.78125 L 18.109375 -36.921875 L 18.109375 -30.9375 C 18.109375 -30.414062 18.09375 -29.765625 18.0625 -28.984375 C 18.03125 -28.203125 18.046875 -27.320312 18.109375 -26.34375 C 18.109375 -22.945312 18.15625 -18.503906 18.25 -13.015625 C 18.351562 -7.535156 18.503906 -4.242188 18.703125 -3.140625 C 18.765625 -2.804688 18.796875 -2.410156 18.796875 -1.953125 C 18.796875 -1.304688 18.664062 -0.898438 18.40625 -0.734375 C 18.144531 -0.566406 17.65625 -0.519531 16.9375 -0.59375 C 15.894531 -0.59375 14.671875 -0.523438 13.265625 -0.390625 C 11.859375 -0.265625 10.535156 -0.132812 9.296875 0 C 8.316406 0.132812 7.679688 -0.0234375 7.390625 -0.484375 C 7.097656 -0.941406 6.984375 -1.957031 7.046875 -3.53125 C 7.046875 -5.875 6.945312 -10.019531 6.75 -15.96875 C 6.488281 -22.164062 6.328125 -27.550781 6.265625 -32.125 C 6.265625 -36.757812 6.363281 -41.457031 6.5625 -46.21875 C 6.6875 -52.226562 6.75 -56.34375 6.75 -58.5625 C 6.75 -61.5625 6.65625 -63.75 6.46875 -65.125 C 6.332031 -66.289062 6.265625 -67.039062 6.265625 -67.375 C 6.265625 -68.550781 6.457031 -69.347656 6.84375 -69.765625 C 7.238281 -70.191406 7.765625 -70.40625 8.421875 -70.40625 C 8.742188 -70.40625 9.394531 -70.390625 10.375 -70.359375 C 11.351562 -70.328125 12.757812 -70.539062 14.59375 -71 C 15.3125 -71.125 16.03125 -71.1875 16.75 -71.1875 C 17.132812 -71.1875 17.6875 -71.15625 18.40625 -71.09375 C 19.125 -71.03125 20.070312 -71 21.25 -71 C 22.75 -71 24.003906 -70.410156 25.015625 -69.234375 C 26.023438 -68.054688 27.117188 -66.390625 28.296875 -64.234375 L 29.28125 -62.46875 C 30.0625 -61.03125 31.007812 -59.5 32.125 -57.875 L 33.59375 -55.625 Z M 33.59375 -61 "/></g></g></g><g fill="#aabf62" fill-opacity="0.5412"><g transform="translate(262.907945, 219.088854)"><g><path d="M 55.8125 -1.953125 C 56.144531 -1.304688 56.3125 -0.882812 56.3125 -0.6875 C 56.3125 -0.164062 55.722656 0.09375 54.546875 0.09375 L 47.484375 0.09375 C 47.222656 0.09375 46.960938 -0.128906 46.703125 -0.578125 C 46.441406 -1.035156 46.210938 -1.492188 46.015625 -1.953125 C 45.828125 -2.410156 45.664062 -2.804688 45.53125 -3.140625 C 45.207031 -3.785156 44.601562 -5.28125 43.71875 -7.625 C 42.84375 -9.976562 42.175781 -11.84375 41.71875 -13.21875 C 41.519531 -13.875 41.125 -14.835938 40.53125 -16.109375 C 39.945312 -17.378906 39.523438 -18.273438 39.265625 -18.796875 C 39.003906 -19.578125 38.757812 -20.097656 38.53125 -20.359375 C 38.300781 -20.628906 37.957031 -20.765625 37.5 -20.765625 C 37.039062 -20.765625 36.46875 -20.726562 35.78125 -20.65625 C 35.101562 -20.59375 34.375 -20.53125 33.59375 -20.46875 C 33.0625 -20.332031 31.425781 -20.265625 28.6875 -20.265625 C 26.789062 -20.265625 24.929688 -20.203125 23.109375 -20.078125 C 22.523438 -20.003906 21.476562 -19.96875 19.96875 -19.96875 L 14.78125 -20.078125 C 14.457031 -20.078125 14.210938 -19.945312 14.046875 -19.6875 C 13.890625 -19.425781 13.773438 -19.113281 13.703125 -18.75 C 13.640625 -18.394531 13.578125 -18.117188 13.515625 -17.921875 L 12.921875 -15.46875 C 12.722656 -14.550781 12.476562 -13.488281 12.1875 -12.28125 C 11.894531 -11.082031 11.648438 -9.957031 11.453125 -8.90625 L 10.375 -4.703125 L 9.59375 -1.859375 C 9.394531 -1.078125 9.210938 -0.570312 9.046875 -0.34375 C 8.890625 -0.113281 8.648438 0 8.328125 0 L 2.546875 0 C 2.222656 0 2.0625 -0.128906 2.0625 -0.390625 C 2.0625 -0.523438 2.191406 -0.984375 2.453125 -1.765625 C 2.972656 -3.003906 3.425781 -4.242188 3.8125 -5.484375 C 6.226562 -13.578125 7.664062 -18.863281 8.125 -21.34375 C 8.71875 -24.613281 9.925781 -28.828125 11.75 -33.984375 C 12.332031 -36.203125 12.890625 -38.222656 13.421875 -40.046875 C 13.609375 -40.960938 13.898438 -42.070312 14.296875 -43.375 C 15.535156 -47.945312 16.773438 -52.222656 18.015625 -56.203125 L 20.46875 -64.046875 C 20.988281 -66.066406 21.640625 -68.15625 22.421875 -70.3125 C 22.816406 -71.289062 23.273438 -71.519531 23.796875 -71 C 24.179688 -70.738281 24.472656 -70.28125 24.671875 -69.625 C 24.867188 -68.96875 25 -68.507812 25.0625 -68.25 C 25.257812 -67.46875 26.992188 -63.550781 30.265625 -56.5 C 31.566406 -53.820312 32.96875 -50.328125 34.46875 -46.015625 C 35.125 -44.128906 36.921875 -40.050781 39.859375 -33.78125 C 41.359375 -30.71875 42.335938 -28.597656 42.796875 -27.421875 C 43.835938 -25.128906 46.644531 -19.578125 51.21875 -10.765625 L 52.390625 -8.328125 C 53.890625 -4.992188 55.03125 -2.867188 55.8125 -1.953125 Z M 30.15625 -34.265625 C 30.613281 -34.335938 31.003906 -34.375 31.328125 -34.375 C 31.660156 -34.375 31.921875 -34.40625 32.109375 -34.46875 C 32.304688 -34.53125 32.40625 -34.628906 32.40625 -34.765625 C 32.40625 -34.890625 32.3125 -35.148438 32.125 -35.546875 C 31.789062 -36.128906 31.035156 -37.773438 29.859375 -40.484375 C 28.691406 -43.191406 27.878906 -45.234375 27.421875 -46.609375 C 26.765625 -48.171875 26.253906 -49.472656 25.890625 -50.515625 C 25.535156 -51.566406 25.257812 -52.289062 25.0625 -52.6875 C 24.9375 -53.007812 24.789062 -53.332031 24.625 -53.65625 C 24.457031 -53.988281 24.304688 -54.25 24.171875 -54.4375 C 24.046875 -54.632812 23.921875 -54.734375 23.796875 -54.734375 C 23.597656 -54.734375 23.382812 -54.242188 23.15625 -53.265625 C 22.925781 -52.285156 22.75 -51.535156 22.625 -51.015625 C 21.445312 -47.234375 20.597656 -44.363281 20.078125 -42.40625 C 19.816406 -41.425781 19.441406 -40.234375 18.953125 -38.828125 C 18.460938 -37.421875 18.117188 -36.457031 17.921875 -35.9375 C 17.722656 -35.28125 17.625 -34.757812 17.625 -34.375 C 17.625 -33.976562 17.914062 -33.78125 18.5 -33.78125 C 19.875 -33.78125 21.976562 -33.828125 24.8125 -33.921875 C 27.65625 -34.023438 29.4375 -34.140625 30.15625 -34.265625 Z M 30.15625 -34.265625 "/></g></g></g><g fill="#aabf62" fill-opacity="0.5412"><g transform="translate(320.09009, 219.088854)"><g><path d="M 26.921875 -69.03125 C 32.609375 -69.03125 36.820312 -67.921875 39.5625 -65.703125 C 42.300781 -63.484375 43.738281 -62.3125 43.875 -62.1875 C 44.519531 -61.726562 44.84375 -61.269531 44.84375 -60.8125 C 44.84375 -60.550781 44.710938 -60.289062 44.453125 -60.03125 C 44.253906 -59.769531 43.863281 -59.210938 43.28125 -58.359375 C 42.695312 -57.515625 42.238281 -57.09375 41.90625 -57.09375 C 41.582031 -57.09375 41.160156 -57.253906 40.640625 -57.578125 L 39.953125 -58.171875 C 34.992188 -61.753906 30.75 -63.546875 27.21875 -63.546875 C 22.71875 -63.546875 19.304688 -62.515625 16.984375 -60.453125 C 14.671875 -58.398438 13.515625 -55.8125 13.515625 -52.6875 C 13.515625 -50.007812 14.476562 -47.722656 16.40625 -45.828125 C 18.332031 -43.929688 20.859375 -42.132812 23.984375 -40.4375 C 24.898438 -40.050781 25.847656 -39.691406 26.828125 -39.359375 C 30.097656 -38.117188 32.957031 -36.796875 35.40625 -35.390625 C 37.851562 -33.992188 40.054688 -31.875 42.015625 -29.03125 C 43.972656 -26.195312 44.953125 -22.625 44.953125 -18.3125 C 44.953125 -10.9375 42.4375 -5.894531 37.40625 -3.1875 C 32.375 -0.476562 26.757812 0.875 20.5625 0.875 C 16.96875 0.875 13.71875 0.0625 10.8125 -1.5625 C 7.914062 -3.195312 5.847656 -4.632812 4.609375 -5.875 C 3.953125 -6.457031 3.785156 -7.046875 4.109375 -7.640625 C 4.171875 -7.765625 4.445312 -8.285156 4.9375 -9.203125 C 5.425781 -10.117188 5.867188 -10.578125 6.265625 -10.578125 L 6.46875 -10.578125 C 6.65625 -10.578125 6.832031 -10.523438 7 -10.421875 C 7.164062 -10.328125 7.363281 -10.148438 7.59375 -9.890625 C 7.820312 -9.628906 8.097656 -9.335938 8.421875 -9.015625 C 9.265625 -8.160156 10.925781 -7.191406 13.40625 -6.109375 C 15.894531 -5.035156 17.953125 -4.5 19.578125 -4.5 C 23.046875 -4.5 26.34375 -5.234375 29.46875 -6.703125 C 32.601562 -8.171875 34.171875 -11.289062 34.171875 -16.0625 C 34.171875 -18.082031 33.269531 -19.84375 31.46875 -21.34375 C 29.675781 -22.84375 26.890625 -24.609375 23.109375 -26.640625 L 18.90625 -28.984375 C 14.332031 -31.597656 10.753906 -34.40625 8.171875 -37.40625 C 5.597656 -40.40625 4.3125 -44.351562 4.3125 -49.25 C 4.3125 -53.300781 5.46875 -56.828125 7.78125 -59.828125 C 10.101562 -62.828125 13.007812 -65.109375 16.5 -66.671875 C 19.988281 -68.242188 23.460938 -69.03125 26.921875 -69.03125 Z M 26.921875 -69.03125 "/></g></g></g><g fill="#95b1cc" fill-opacity="1"><g transform="translate(2.239517, 214.76099)"><g><path d="M 51.21875 -66.390625 C 51.21875 -66.066406 51.164062 -65.21875 51.0625 -63.84375 C 50.96875 -62.46875 50.921875 -60.769531 50.921875 -58.75 C 50.921875 -56.925781 51.019531 -54.445312 51.21875 -51.3125 C 51.21875 -49.550781 50.070312 -48.671875 47.78125 -48.671875 L 30.546875 -48.671875 L 30.359375 -38.578125 C 30.296875 -37.472656 30.265625 -34.703125 30.265625 -30.265625 C 30.265625 -25.691406 30.296875 -21.25 30.359375 -16.9375 C 30.421875 -12.632812 30.453125 -8.914062 30.453125 -5.78125 L 30.546875 -1.765625 L 30.546875 -1.265625 C 30.546875 -0.679688 30.460938 -0.320312 30.296875 -0.1875 C 30.140625 -0.0625 29.929688 0 29.671875 0 C 29.410156 0 29.210938 0 29.078125 0 L 22.421875 0 C 21.640625 0 21.179688 -0.128906 21.046875 -0.390625 C 20.921875 -0.648438 20.859375 -1.125 20.859375 -1.8125 C 20.859375 -2.5 20.859375 -3.003906 20.859375 -3.328125 L 21.25 -15.46875 C 21.644531 -26.039062 21.84375 -32.832031 21.84375 -35.84375 C 21.84375 -37.539062 21.773438 -40.085938 21.640625 -43.484375 L 21.546875 -48.671875 C 16.847656 -48.671875 12.082031 -48.601562 7.25 -48.46875 L 4.203125 -48.375 C 3.359375 -48.375 2.769531 -48.601562 2.4375 -49.0625 C 2.113281 -49.519531 2.050781 -50.039062 2.25 -50.625 L 2.34375 -53.078125 C 2.476562 -56.859375 2.546875 -60.347656 2.546875 -63.546875 C 2.546875 -65.117188 2.515625 -66.066406 2.453125 -66.390625 L 2.453125 -67.078125 C 2.453125 -67.796875 2.597656 -68.21875 2.890625 -68.34375 C 3.179688 -68.476562 3.617188 -68.546875 4.203125 -68.546875 L 13.90625 -68.546875 L 19.390625 -68.640625 C 22.785156 -68.773438 25.164062 -68.84375 26.53125 -68.84375 L 32.40625 -68.734375 C 37.113281 -68.609375 40.804688 -68.546875 43.484375 -68.546875 C 45.441406 -68.546875 46.710938 -68.578125 47.296875 -68.640625 C 48.734375 -68.703125 49.742188 -68.488281 50.328125 -68 C 50.921875 -67.507812 51.21875 -66.972656 51.21875 -66.390625 Z M 51.21875 -66.390625 "/></g></g></g><g fill="#95b1cc" fill-opacity="1"><g transform="translate(55.309258, 214.76099)"><g><path d="M 42.796875 -68.34375 C 46.710938 -65.738281 49.859375 -62.210938 52.234375 -57.765625 C 54.617188 -53.328125 56.285156 -49.003906 57.234375 -44.796875 C 58.179688 -40.585938 58.65625 -37.273438 58.65625 -34.859375 C 58.65625 -30.804688 58.019531 -26.101562 56.75 -20.75 C 55.476562 -15.40625 52.75 -10.429688 48.5625 -5.828125 C 44.382812 -1.222656 38.347656 1.078125 30.453125 1.078125 C 19.617188 1.078125 11.914062 -5.222656 7.34375 -17.828125 C 5.320312 -23.503906 4.179688 -29.832031 3.921875 -36.8125 C 3.921875 -42.5625 5.125 -48.03125 7.53125 -53.21875 C 9.945312 -58.40625 13.128906 -62.566406 17.078125 -65.703125 C 21.035156 -68.835938 25.101562 -70.40625 29.28125 -70.40625 C 33.0625 -70.40625 35.882812 -70.304688 37.75 -70.109375 C 39.613281 -69.910156 41.296875 -69.320312 42.796875 -68.34375 Z M 29.96875 -4.40625 C 36.882812 -4.40625 42.039062 -7.289062 45.4375 -13.0625 C 48.832031 -18.84375 50.53125 -26.109375 50.53125 -34.859375 C 50.53125 -40.210938 49.726562 -45.15625 48.125 -49.6875 C 46.53125 -54.226562 44.28125 -57.851562 41.375 -60.5625 C 38.46875 -63.269531 35.117188 -64.625 31.328125 -64.625 C 31.003906 -64.625 30.140625 -64.625 28.734375 -64.625 C 27.335938 -64.625 26.113281 -64.394531 25.0625 -63.9375 C 24.019531 -63.476562 23.078125 -62.796875 22.234375 -61.890625 C 20.078125 -59.734375 18.265625 -57.753906 16.796875 -55.953125 C 15.328125 -54.160156 13.859375 -51.5 12.390625 -47.96875 C 10.921875 -44.445312 10.1875 -40.367188 10.1875 -35.734375 C 10.1875 -30.253906 10.851562 -25.144531 12.1875 -20.40625 C 13.53125 -15.675781 15.671875 -11.828125 18.609375 -8.859375 C 21.546875 -5.890625 25.332031 -4.40625 29.96875 -4.40625 Z M 29.96875 -4.40625 "/></g></g></g><g fill="#95b1cc" fill-opacity="1"><g transform="translate(117.876722, 214.76099)"><g><path d="M 33.59375 -61 C 33.59375 -65.050781 33.625 -67.566406 33.6875 -68.546875 C 33.6875 -69.785156 34.109375 -70.535156 34.953125 -70.796875 C 35.804688 -71.054688 37.046875 -71.1875 38.671875 -71.1875 C 40.109375 -71.1875 41.953125 -71.265625 44.203125 -71.421875 C 46.460938 -71.585938 48.210938 -71.769531 49.453125 -71.96875 C 50.367188 -72.039062 51.019531 -71.894531 51.40625 -71.53125 C 51.800781 -71.175781 52 -70.570312 52 -69.71875 C 52 -69.457031 51.929688 -68.738281 51.796875 -67.5625 C 51.671875 -66.582031 51.609375 -60.085938 51.609375 -48.078125 L 51.609375 -25.953125 C 51.609375 -22.617188 51.65625 -18.941406 51.75 -14.921875 C 51.851562 -10.910156 51.96875 -7.304688 52.09375 -4.109375 C 52.226562 -0.910156 52.296875 -0.03125 52.296875 -1.46875 C 52.296875 -0.425781 51.769531 0.09375 50.71875 0.09375 C 50.257812 0.09375 49.867188 0.0625 49.546875 0 C 49.285156 -0.0625 48.765625 -0.09375 47.984375 -0.09375 C 47.203125 -0.09375 45.960938 -0.03125 44.265625 0.09375 C 42.429688 0.226562 41.15625 0.296875 40.4375 0.296875 C 39.195312 0.296875 38.265625 0.0351562 37.640625 -0.484375 C 37.023438 -1.003906 36.390625 -1.953125 35.734375 -3.328125 L 34.078125 -6.65625 C 32.117188 -11.03125 30.390625 -14.457031 28.890625 -16.9375 C 28.035156 -18.375 25.878906 -22.320312 22.421875 -28.78125 L 18.109375 -36.921875 L 18.109375 -30.9375 C 18.109375 -30.414062 18.09375 -29.765625 18.0625 -28.984375 C 18.03125 -28.203125 18.046875 -27.320312 18.109375 -26.34375 C 18.109375 -22.945312 18.15625 -18.503906 18.25 -13.015625 C 18.351562 -7.535156 18.503906 -4.242188 18.703125 -3.140625 C 18.765625 -2.804688 18.796875 -2.410156 18.796875 -1.953125 C 18.796875 -1.304688 18.664062 -0.898438 18.40625 -0.734375 C 18.144531 -0.566406 17.65625 -0.519531 16.9375 -0.59375 C 15.894531 -0.59375 14.671875 -0.523438 13.265625 -0.390625 C 11.859375 -0.265625 10.535156 -0.132812 9.296875 0 C 8.316406 0.132812 7.679688 -0.0234375 7.390625 -0.484375 C 7.097656 -0.941406 6.984375 -1.957031 7.046875 -3.53125 C 7.046875 -5.875 6.945312 -10.019531 6.75 -15.96875 C 6.488281 -22.164062 6.328125 -27.550781 6.265625 -32.125 C 6.265625 -36.757812 6.363281 -41.457031 6.5625 -46.21875 C 6.6875 -52.226562 6.75 -56.34375 6.75 -58.5625 C 6.75 -61.5625 6.65625 -63.75 6.46875 -65.125 C 6.332031 -66.289062 6.265625 -67.039062 6.265625 -67.375 C 6.265625 -68.550781 6.457031 -69.347656 6.84375 -69.765625 C 7.238281 -70.191406 7.765625 -70.40625 8.421875 -70.40625 C 8.742188 -70.40625 9.394531 -70.390625 10.375 -70.359375 C 11.351562 -70.328125 12.757812 -70.539062 14.59375 -71 C 15.3125 -71.125 16.03125 -71.1875 16.75 -71.1875 C 17.132812 -71.1875 17.6875 -71.15625 18.40625 -71.09375 C 19.125 -71.03125 20.070312 -71 21.25 -71 C 22.75 -71 24.003906 -70.410156 25.015625 -69.234375 C 26.023438 -68.054688 27.117188 -66.390625 28.296875 -64.234375 L 29.28125 -62.46875 C 30.0625 -61.03125 31.007812 -59.5 32.125 -57.875 L 33.59375 -55.625 Z M 33.59375 -61 "/></g></g></g><g fill="#95b1cc" fill-opacity="1"><g transform="translate(176.331766, 214.76099)"><g><path d="M 9.109375 -69.03125 C 9.953125 -68.96875 10.78125 -68.953125 11.59375 -68.984375 C 12.414062 -69.015625 13.117188 -69.03125 13.703125 -69.03125 C 15.140625 -69.03125 16.1875 -69 16.84375 -68.9375 C 17.625 -68.875 18.175781 -68.710938 18.5 -68.453125 C 18.832031 -68.191406 19 -67.832031 19 -67.375 C 19 -67.039062 18.960938 -66.675781 18.890625 -66.28125 C 18.828125 -65.894531 18.765625 -65.539062 18.703125 -65.21875 C 17.984375 -59.664062 17.59375 -53.953125 17.53125 -48.078125 C 17.46875 -46.378906 17.4375 -43.769531 17.4375 -40.25 L 17.53125 -28.390625 C 17.59375 -27.410156 17.625 -26.398438 17.625 -25.359375 L 17.71875 -21.4375 C 17.851562 -18.050781 17.921875 -15.539062 17.921875 -13.90625 C 17.921875 -12.664062 17.890625 -11.914062 17.828125 -11.65625 C 17.753906 -11.394531 17.71875 -10.644531 17.71875 -9.40625 L 17.828125 -4.015625 C 17.890625 -3.234375 17.921875 -2.253906 17.921875 -1.078125 C 17.984375 -0.222656 17.738281 0.3125 17.1875 0.53125 C 16.632812 0.757812 15.898438 0.84375 14.984375 0.78125 L 6.078125 0.78125 C 5.097656 0.84375 4.472656 0.628906 4.203125 0.140625 C 3.941406 -0.347656 3.78125 -1.144531 3.71875 -2.25 C 3.59375 -2.707031 3.660156 -3.914062 3.921875 -5.875 C 4.179688 -7.695312 4.3125 -9.265625 4.3125 -10.578125 C 4.3125 -11.035156 4.539062 -15.441406 5 -23.796875 C 5.382812 -29.929688 5.578125 -33.289062 5.578125 -33.875 L 5.78125 -43.484375 L 5.96875 -52.390625 L 6.171875 -57.671875 L 6.359375 -61.203125 L 6.359375 -65.3125 C 6.359375 -67.863281 7.015625 -69.140625 8.328125 -69.140625 C 8.648438 -69.140625 8.910156 -69.101562 9.109375 -69.03125 Z M 9.109375 -69.03125 "/></g></g></g><g fill="#95b1cc" fill-opacity="1"><g transform="translate(200.125033, 214.76099)"><g><path d="M 33.59375 -61 C 33.59375 -65.050781 33.625 -67.566406 33.6875 -68.546875 C 33.6875 -69.785156 34.109375 -70.535156 34.953125 -70.796875 C 35.804688 -71.054688 37.046875 -71.1875 38.671875 -71.1875 C 40.109375 -71.1875 41.953125 -71.265625 44.203125 -71.421875 C 46.460938 -71.585938 48.210938 -71.769531 49.453125 -71.96875 C 50.367188 -72.039062 51.019531 -71.894531 51.40625 -71.53125 C 51.800781 -71.175781 52 -70.570312 52 -69.71875 C 52 -69.457031 51.929688 -68.738281 51.796875 -67.5625 C 51.671875 -66.582031 51.609375 -60.085938 51.609375 -48.078125 L 51.609375 -25.953125 C 51.609375 -22.617188 51.65625 -18.941406 51.75 -14.921875 C 51.851562 -10.910156 51.96875 -7.304688 52.09375 -4.109375 C 52.226562 -0.910156 52.296875 -0.03125 52.296875 -1.46875 C 52.296875 -0.425781 51.769531 0.09375 50.71875 0.09375 C 50.257812 0.09375 49.867188 0.0625 49.546875 0 C 49.285156 -0.0625 48.765625 -0.09375 47.984375 -0.09375 C 47.203125 -0.09375 45.960938 -0.03125 44.265625 0.09375 C 42.429688 0.226562 41.15625 0.296875 40.4375 0.296875 C 39.195312 0.296875 38.265625 0.0351562 37.640625 -0.484375 C 37.023438 -1.003906 36.390625 -1.953125 35.734375 -3.328125 L 34.078125 -6.65625 C 32.117188 -11.03125 30.390625 -14.457031 28.890625 -16.9375 C 28.035156 -18.375 25.878906 -22.320312 22.421875 -28.78125 L 18.109375 -36.921875 L 18.109375 -30.9375 C 18.109375 -30.414062 18.09375 -29.765625 18.0625 -28.984375 C 18.03125 -28.203125 18.046875 -27.320312 18.109375 -26.34375 C 18.109375 -22.945312 18.15625 -18.503906 18.25 -13.015625 C 18.351562 -7.535156 18.503906 -4.242188 18.703125 -3.140625 C 18.765625 -2.804688 18.796875 -2.410156 18.796875 -1.953125 C 18.796875 -1.304688 18.664062 -0.898438 18.40625 -0.734375 C 18.144531 -0.566406 17.65625 -0.519531 16.9375 -0.59375 C 15.894531 -0.59375 14.671875 -0.523438 13.265625 -0.390625 C 11.859375 -0.265625 10.535156 -0.132812 9.296875 0 C 8.316406 0.132812 7.679688 -0.0234375 7.390625 -0.484375 C 7.097656 -0.941406 6.984375 -1.957031 7.046875 -3.53125 C 7.046875 -5.875 6.945312 -10.019531 6.75 -15.96875 C 6.488281 -22.164062 6.328125 -27.550781 6.265625 -32.125 C 6.265625 -36.757812 6.363281 -41.457031 6.5625 -46.21875 C 6.6875 -52.226562 6.75 -56.34375 6.75 -58.5625 C 6.75 -61.5625 6.65625 -63.75 6.46875 -65.125 C 6.332031 -66.289062 6.265625 -67.039062 6.265625 -67.375 C 6.265625 -68.550781 6.457031 -69.347656 6.84375 -69.765625 C 7.238281 -70.191406 7.765625 -70.40625 8.421875 -70.40625 C 8.742188 -70.40625 9.394531 -70.390625 10.375 -70.359375 C 11.351562 -70.328125 12.757812 -70.539062 14.59375 -71 C 15.3125 -71.125 16.03125 -71.1875 16.75 -71.1875 C 17.132812 -71.1875 17.6875 -71.15625 18.40625 -71.09375 C 19.125 -71.03125 20.070312 -71 21.25 -71 C 22.75 -71 24.003906 -70.410156 25.015625 -69.234375 C 26.023438 -68.054688 27.117188 -66.390625 28.296875 -64.234375 L 29.28125 -62.46875 C 30.0625 -61.03125 31.007812 -59.5 32.125 -57.875 L 33.59375 -55.625 Z M 33.59375 -61 "/></g></g></g><g fill="#95b1cc" fill-opacity="1"><g transform="translate(258.580078, 214.76099)"><g><path d="M 55.8125 -1.953125 C 56.144531 -1.304688 56.3125 -0.882812 56.3125 -0.6875 C 56.3125 -0.164062 55.722656 0.09375 54.546875 0.09375 L 47.484375 0.09375 C 47.222656 0.09375 46.960938 -0.128906 46.703125 -0.578125 C 46.441406 -1.035156 46.210938 -1.492188 46.015625 -1.953125 C 45.828125 -2.410156 45.664062 -2.804688 45.53125 -3.140625 C 45.207031 -3.785156 44.601562 -5.28125 43.71875 -7.625 C 42.84375 -9.976562 42.175781 -11.84375 41.71875 -13.21875 C 41.519531 -13.875 41.125 -14.835938 40.53125 -16.109375 C 39.945312 -17.378906 39.523438 -18.273438 39.265625 -18.796875 C 39.003906 -19.578125 38.757812 -20.097656 38.53125 -20.359375 C 38.300781 -20.628906 37.957031 -20.765625 37.5 -20.765625 C 37.039062 -20.765625 36.46875 -20.726562 35.78125 -20.65625 C 35.101562 -20.59375 34.375 -20.53125 33.59375 -20.46875 C 33.0625 -20.332031 31.425781 -20.265625 28.6875 -20.265625 C 26.789062 -20.265625 24.929688 -20.203125 23.109375 -20.078125 C 22.523438 -20.003906 21.476562 -19.96875 19.96875 -19.96875 L 14.78125 -20.078125 C 14.457031 -20.078125 14.210938 -19.945312 14.046875 -19.6875 C 13.890625 -19.425781 13.773438 -19.113281 13.703125 -18.75 C 13.640625 -18.394531 13.578125 -18.117188 13.515625 -17.921875 L 12.921875 -15.46875 C 12.722656 -14.550781 12.476562 -13.488281 12.1875 -12.28125 C 11.894531 -11.082031 11.648438 -9.957031 11.453125 -8.90625 L 10.375 -4.703125 L 9.59375 -1.859375 C 9.394531 -1.078125 9.210938 -0.570312 9.046875 -0.34375 C 8.890625 -0.113281 8.648438 0 8.328125 0 L 2.546875 0 C 2.222656 0 2.0625 -0.128906 2.0625 -0.390625 C 2.0625 -0.523438 2.191406 -0.984375 2.453125 -1.765625 C 2.972656 -3.003906 3.425781 -4.242188 3.8125 -5.484375 C 6.226562 -13.578125 7.664062 -18.863281 8.125 -21.34375 C 8.71875 -24.613281 9.925781 -28.828125 11.75 -33.984375 C 12.332031 -36.203125 12.890625 -38.222656 13.421875 -40.046875 C 13.609375 -40.960938 13.898438 -42.070312 14.296875 -43.375 C 15.535156 -47.945312 16.773438 -52.222656 18.015625 -56.203125 L 20.46875 -64.046875 C 20.988281 -66.066406 21.640625 -68.15625 22.421875 -70.3125 C 22.816406 -71.289062 23.273438 -71.519531 23.796875 -71 C 24.179688 -70.738281 24.472656 -70.28125 24.671875 -69.625 C 24.867188 -68.96875 25 -68.507812 25.0625 -68.25 C 25.257812 -67.46875 26.992188 -63.550781 30.265625 -56.5 C 31.566406 -53.820312 32.96875 -50.328125 34.46875 -46.015625 C 35.125 -44.128906 36.921875 -40.050781 39.859375 -33.78125 C 41.359375 -30.71875 42.335938 -28.597656 42.796875 -27.421875 C 43.835938 -25.128906 46.644531 -19.578125 51.21875 -10.765625 L 52.390625 -8.328125 C 53.890625 -4.992188 55.03125 -2.867188 55.8125 -1.953125 Z M 30.15625 -34.265625 C 30.613281 -34.335938 31.003906 -34.375 31.328125 -34.375 C 31.660156 -34.375 31.921875 -34.40625 32.109375 -34.46875 C 32.304688 -34.53125 32.40625 -34.628906 32.40625 -34.765625 C 32.40625 -34.890625 32.3125 -35.148438 32.125 -35.546875 C 31.789062 -36.128906 31.035156 -37.773438 29.859375 -40.484375 C 28.691406 -43.191406 27.878906 -45.234375 27.421875 -46.609375 C 26.765625 -48.171875 26.253906 -49.472656 25.890625 -50.515625 C 25.535156 -51.566406 25.257812 -52.289062 25.0625 -52.6875 C 24.9375 -53.007812 24.789062 -53.332031 24.625 -53.65625 C 24.457031 -53.988281 24.304688 -54.25 24.171875 -54.4375 C 24.046875 -54.632812 23.921875 -54.734375 23.796875 -54.734375 C 23.597656 -54.734375 23.382812 -54.242188 23.15625 -53.265625 C 22.925781 -52.285156 22.75 -51.535156 22.625 -51.015625 C 21.445312 -47.234375 20.597656 -44.363281 20.078125 -42.40625 C 19.816406 -41.425781 19.441406 -40.234375 18.953125 -38.828125 C 18.460938 -37.421875 18.117188 -36.457031 17.921875 -35.9375 C 17.722656 -35.28125 17.625 -34.757812 17.625 -34.375 C 17.625 -33.976562 17.914062 -33.78125 18.5 -33.78125 C 19.875 -33.78125 21.976562 -33.828125 24.8125 -33.921875 C 27.65625 -34.023438 29.4375 -34.140625 30.15625 -34.265625 Z M 30.15625 -34.265625 "/></g></g></g><g fill="#95b1cc" fill-opacity="1"><g transform="translate(315.762222, 214.76099)"><g><path d="M 26.921875 -69.03125 C 32.609375 -69.03125 36.820312 -67.921875 39.5625 -65.703125 C 42.300781 -63.484375 43.738281 -62.3125 43.875 -62.1875 C 44.519531 -61.726562 44.84375 -61.269531 44.84375 -60.8125 C 44.84375 -60.550781 44.710938 -60.289062 44.453125 -60.03125 C 44.253906 -59.769531 43.863281 -59.210938 43.28125 -58.359375 C 42.695312 -57.515625 42.238281 -57.09375 41.90625 -57.09375 C 41.582031 -57.09375 41.160156 -57.253906 40.640625 -57.578125 L 39.953125 -58.171875 C 34.992188 -61.753906 30.75 -63.546875 27.21875 -63.546875 C 22.71875 -63.546875 19.304688 -62.515625 16.984375 -60.453125 C 14.671875 -58.398438 13.515625 -55.8125 13.515625 -52.6875 C 13.515625 -50.007812 14.476562 -47.722656 16.40625 -45.828125 C 18.332031 -43.929688 20.859375 -42.132812 23.984375 -40.4375 C 24.898438 -40.050781 25.847656 -39.691406 26.828125 -39.359375 C 30.097656 -38.117188 32.957031 -36.796875 35.40625 -35.390625 C 37.851562 -33.992188 40.054688 -31.875 42.015625 -29.03125 C 43.972656 -26.195312 44.953125 -22.625 44.953125 -18.3125 C 44.953125 -10.9375 42.4375 -5.894531 37.40625 -3.1875 C 32.375 -0.476562 26.757812 0.875 20.5625 0.875 C 16.96875 0.875 13.71875 0.0625 10.8125 -1.5625 C 7.914062 -3.195312 5.847656 -4.632812 4.609375 -5.875 C 3.953125 -6.457031 3.785156 -7.046875 4.109375 -7.640625 C 4.171875 -7.765625 4.445312 -8.285156 4.9375 -9.203125 C 5.425781 -10.117188 5.867188 -10.578125 6.265625 -10.578125 L 6.46875 -10.578125 C 6.65625 -10.578125 6.832031 -10.523438 7 -10.421875 C 7.164062 -10.328125 7.363281 -10.148438 7.59375 -9.890625 C 7.820312 -9.628906 8.097656 -9.335938 8.421875 -9.015625 C 9.265625 -8.160156 10.925781 -7.191406 13.40625 -6.109375 C 15.894531 -5.035156 17.953125 -4.5 19.578125 -4.5 C 23.046875 -4.5 26.34375 -5.234375 29.46875 -6.703125 C 32.601562 -8.171875 34.171875 -11.289062 34.171875 -16.0625 C 34.171875 -18.082031 33.269531 -19.84375 31.46875 -21.34375 C 29.675781 -22.84375 26.890625 -24.609375 23.109375 -26.640625 L 18.90625 -28.984375 C 14.332031 -31.597656 10.753906 -34.40625 8.171875 -37.40625 C 5.597656 -40.40625 4.3125 -44.351562 4.3125 -49.25 C 4.3125 -53.300781 5.46875 -56.828125 7.78125 -59.828125 C 10.101562 -62.828125 13.007812 -65.109375 16.5 -66.671875 C 19.988281 -68.242188 23.460938 -69.03125 26.921875 -69.03125 Z M 26.921875 -69.03125 "/></g></g></g><g fill="#aabf62" fill-opacity="0.5412"><g transform="translate(369.354771, 219.088854)"><g/></g></g><g fill="#95b1cc" fill-opacity="1"><g transform="translate(365.026904, 214.76099)"><g/></g></g><g fill="#eaced1" fill-opacity="1"><g transform="translate(10.145171, 214.76099)"><g><path d="M 51.21875 -66.390625 C 51.21875 -66.066406 51.164062 -65.21875 51.0625 -63.84375 C 50.96875 -62.46875 50.921875 -60.769531 50.921875 -58.75 C 50.921875 -56.925781 51.019531 -54.445312 51.21875 -51.3125 C 51.21875 -49.550781 50.070312 -48.671875 47.78125 -48.671875 L 30.546875 -48.671875 L 30.359375 -38.578125 C 30.296875 -37.472656 30.265625 -34.703125 30.265625 -30.265625 C 30.265625 -25.691406 30.296875 -21.25 30.359375 -16.9375 C 30.421875 -12.632812 30.453125 -8.914062 30.453125 -5.78125 L 30.546875 -1.765625 L 30.546875 -1.265625 C 30.546875 -0.679688 30.460938 -0.320312 30.296875 -0.1875 C 30.140625 -0.0625 29.929688 0 29.671875 0 C 29.410156 0 29.210938 0 29.078125 0 L 22.421875 0 C 21.640625 0 21.179688 -0.128906 21.046875 -0.390625 C 20.921875 -0.648438 20.859375 -1.125 20.859375 -1.8125 C 20.859375 -2.5 20.859375 -3.003906 20.859375 -3.328125 L 21.25 -15.46875 C 21.644531 -26.039062 21.84375 -32.832031 21.84375 -35.84375 C 21.84375 -37.539062 21.773438 -40.085938 21.640625 -43.484375 L 21.546875 -48.671875 C 16.847656 -48.671875 12.082031 -48.601562 7.25 -48.46875 L 4.203125 -48.375 C 3.359375 -48.375 2.769531 -48.601562 2.4375 -49.0625 C 2.113281 -49.519531 2.050781 -50.039062 2.25 -50.625 L 2.34375 -53.078125 C 2.476562 -56.859375 2.546875 -60.347656 2.546875 -63.546875 C 2.546875 -65.117188 2.515625 -66.066406 2.453125 -66.390625 L 2.453125 -67.078125 C 2.453125 -67.796875 2.597656 -68.21875 2.890625 -68.34375 C 3.179688 -68.476562 3.617188 -68.546875 4.203125 -68.546875 L 13.90625 -68.546875 L 19.390625 -68.640625 C 22.785156 -68.773438 25.164062 -68.84375 26.53125 -68.84375 L 32.40625 -68.734375 C 37.113281 -68.609375 40.804688 -68.546875 43.484375 -68.546875 C 45.441406 -68.546875 46.710938 -68.578125 47.296875 -68.640625 C 48.734375 -68.703125 49.742188 -68.488281 50.328125 -68 C 50.921875 -67.507812 51.21875 -66.972656 51.21875 -66.390625 Z M 51.21875 -66.390625 "/></g></g></g><g fill="#eaced1" fill-opacity="1"><g transform="translate(63.214911, 214.76099)"><g><path d="M 42.796875 -68.34375 C 46.710938 -65.738281 49.859375 -62.210938 52.234375 -57.765625 C 54.617188 -53.328125 56.285156 -49.003906 57.234375 -44.796875 C 58.179688 -40.585938 58.65625 -37.273438 58.65625 -34.859375 C 58.65625 -30.804688 58.019531 -26.101562 56.75 -20.75 C 55.476562 -15.40625 52.75 -10.429688 48.5625 -5.828125 C 44.382812 -1.222656 38.347656 1.078125 30.453125 1.078125 C 19.617188 1.078125 11.914062 -5.222656 7.34375 -17.828125 C 5.320312 -23.503906 4.179688 -29.832031 3.921875 -36.8125 C 3.921875 -42.5625 5.125 -48.03125 7.53125 -53.21875 C 9.945312 -58.40625 13.128906 -62.566406 17.078125 -65.703125 C 21.035156 -68.835938 25.101562 -70.40625 29.28125 -70.40625 C 33.0625 -70.40625 35.882812 -70.304688 37.75 -70.109375 C 39.613281 -69.910156 41.296875 -69.320312 42.796875 -68.34375 Z M 29.96875 -4.40625 C 36.882812 -4.40625 42.039062 -7.289062 45.4375 -13.0625 C 48.832031 -18.84375 50.53125 -26.109375 50.53125 -34.859375 C 50.53125 -40.210938 49.726562 -45.15625 48.125 -49.6875 C 46.53125 -54.226562 44.28125 -57.851562 41.375 -60.5625 C 38.46875 -63.269531 35.117188 -64.625 31.328125 -64.625 C 31.003906 -64.625 30.140625 -64.625 28.734375 -64.625 C 27.335938 -64.625 26.113281 -64.394531 25.0625 -63.9375 C 24.019531 -63.476562 23.078125 -62.796875 22.234375 -61.890625 C 20.078125 -59.734375 18.265625 -57.753906 16.796875 -55.953125 C 15.328125 -54.160156 13.859375 -51.5 12.390625 -47.96875 C 10.921875 -44.445312 10.1875 -40.367188 10.1875 -35.734375 C 10.1875 -30.253906 10.851562 -25.144531 12.1875 -20.40625 C 13.53125 -15.675781 15.671875 -11.828125 18.609375 -8.859375 C 21.546875 -5.890625 25.332031 -4.40625 29.96875 -4.40625 Z M 29.96875 -4.40625 "/></g></g></g><g fill="#eaced1" fill-opacity="1"><g transform="translate(125.782375, 214.76099)"><g><path d="M 33.59375 -61 C 33.59375 -65.050781 33.625 -67.566406 33.6875 -68.546875 C 33.6875 -69.785156 34.109375 -70.535156 34.953125 -70.796875 C 35.804688 -71.054688 37.046875 -71.1875 38.671875 -71.1875 C 40.109375 -71.1875 41.953125 -71.265625 44.203125 -71.421875 C 46.460938 -71.585938 48.210938 -71.769531 49.453125 -71.96875 C 50.367188 -72.039062 51.019531 -71.894531 51.40625 -71.53125 C 51.800781 -71.175781 52 -70.570312 52 -69.71875 C 52 -69.457031 51.929688 -68.738281 51.796875 -67.5625 C 51.671875 -66.582031 51.609375 -60.085938 51.609375 -48.078125 L 51.609375 -25.953125 C 51.609375 -22.617188 51.65625 -18.941406 51.75 -14.921875 C 51.851562 -10.910156 51.96875 -7.304688 52.09375 -4.109375 C 52.226562 -0.910156 52.296875 -0.03125 52.296875 -1.46875 C 52.296875 -0.425781 51.769531 0.09375 50.71875 0.09375 C 50.257812 0.09375 49.867188 0.0625 49.546875 0 C 49.285156 -0.0625 48.765625 -0.09375 47.984375 -0.09375 C 47.203125 -0.09375 45.960938 -0.03125 44.265625 0.09375 C 42.429688 0.226562 41.15625 0.296875 40.4375 0.296875 C 39.195312 0.296875 38.265625 0.0351562 37.640625 -0.484375 C 37.023438 -1.003906 36.390625 -1.953125 35.734375 -3.328125 L 34.078125 -6.65625 C 32.117188 -11.03125 30.390625 -14.457031 28.890625 -16.9375 C 28.035156 -18.375 25.878906 -22.320312 22.421875 -28.78125 L 18.109375 -36.921875 L 18.109375 -30.9375 C 18.109375 -30.414062 18.09375 -29.765625 18.0625 -28.984375 C 18.03125 -28.203125 18.046875 -27.320312 18.109375 -26.34375 C 18.109375 -22.945312 18.15625 -18.503906 18.25 -13.015625 C 18.351562 -7.535156 18.503906 -4.242188 18.703125 -3.140625 C 18.765625 -2.804688 18.796875 -2.410156 18.796875 -1.953125 C 18.796875 -1.304688 18.664062 -0.898438 18.40625 -0.734375 C 18.144531 -0.566406 17.65625 -0.519531 16.9375 -0.59375 C 15.894531 -0.59375 14.671875 -0.523438 13.265625 -0.390625 C 11.859375 -0.265625 10.535156 -0.132812 9.296875 0 C 8.316406 0.132812 7.679688 -0.0234375 7.390625 -0.484375 C 7.097656 -0.941406 6.984375 -1.957031 7.046875 -3.53125 C 7.046875 -5.875 6.945312 -10.019531 6.75 -15.96875 C 6.488281 -22.164062 6.328125 -27.550781 6.265625 -32.125 C 6.265625 -36.757812 6.363281 -41.457031 6.5625 -46.21875 C 6.6875 -52.226562 6.75 -56.34375 6.75 -58.5625 C 6.75 -61.5625 6.65625 -63.75 6.46875 -65.125 C 6.332031 -66.289062 6.265625 -67.039062 6.265625 -67.375 C 6.265625 -68.550781 6.457031 -69.347656 6.84375 -69.765625 C 7.238281 -70.191406 7.765625 -70.40625 8.421875 -70.40625 C 8.742188 -70.40625 9.394531 -70.390625 10.375 -70.359375 C 11.351562 -70.328125 12.757812 -70.539062 14.59375 -71 C 15.3125 -71.125 16.03125 -71.1875 16.75 -71.1875 C 17.132812 -71.1875 17.6875 -71.15625 18.40625 -71.09375 C 19.125 -71.03125 20.070312 -71 21.25 -71 C 22.75 -71 24.003906 -70.410156 25.015625 -69.234375 C 26.023438 -68.054688 27.117188 -66.390625 28.296875 -64.234375 L 29.28125 -62.46875 C 30.0625 -61.03125 31.007812 -59.5 32.125 -57.875 L 33.59375 -55.625 Z M 33.59375 -61 "/></g></g></g><g fill="#eaced1" fill-opacity="1"><g transform="translate(184.237419, 214.76099)"><g><path d="M 9.109375 -69.03125 C 9.953125 -68.96875 10.78125 -68.953125 11.59375 -68.984375 C 12.414062 -69.015625 13.117188 -69.03125 13.703125 -69.03125 C 15.140625 -69.03125 16.1875 -69 16.84375 -68.9375 C 17.625 -68.875 18.175781 -68.710938 18.5 -68.453125 C 18.832031 -68.191406 19 -67.832031 19 -67.375 C 19 -67.039062 18.960938 -66.675781 18.890625 -66.28125 C 18.828125 -65.894531 18.765625 -65.539062 18.703125 -65.21875 C 17.984375 -59.664062 17.59375 -53.953125 17.53125 -48.078125 C 17.46875 -46.378906 17.4375 -43.769531 17.4375 -40.25 L 17.53125 -28.390625 C 17.59375 -27.410156 17.625 -26.398438 17.625 -25.359375 L 17.71875 -21.4375 C 17.851562 -18.050781 17.921875 -15.539062 17.921875 -13.90625 C 17.921875 -12.664062 17.890625 -11.914062 17.828125 -11.65625 C 17.753906 -11.394531 17.71875 -10.644531 17.71875 -9.40625 L 17.828125 -4.015625 C 17.890625 -3.234375 17.921875 -2.253906 17.921875 -1.078125 C 17.984375 -0.222656 17.738281 0.3125 17.1875 0.53125 C 16.632812 0.757812 15.898438 0.84375 14.984375 0.78125 L 6.078125 0.78125 C 5.097656 0.84375 4.472656 0.628906 4.203125 0.140625 C 3.941406 -0.347656 3.78125 -1.144531 3.71875 -2.25 C 3.59375 -2.707031 3.660156 -3.914062 3.921875 -5.875 C 4.179688 -7.695312 4.3125 -9.265625 4.3125 -10.578125 C 4.3125 -11.035156 4.539062 -15.441406 5 -23.796875 C 5.382812 -29.929688 5.578125 -33.289062 5.578125 -33.875 L 5.78125 -43.484375 L 5.96875 -52.390625 L 6.171875 -57.671875 L 6.359375 -61.203125 L 6.359375 -65.3125 C 6.359375 -67.863281 7.015625 -69.140625 8.328125 -69.140625 C 8.648438 -69.140625 8.910156 -69.101562 9.109375 -69.03125 Z M 9.109375 -69.03125 "/></g></g></g><g fill="#eaced1" fill-opacity="1"><g transform="translate(208.030686, 214.76099)"><g><path d="M 33.59375 -61 C 33.59375 -65.050781 33.625 -67.566406 33.6875 -68.546875 C 33.6875 -69.785156 34.109375 -70.535156 34.953125 -70.796875 C 35.804688 -71.054688 37.046875 -71.1875 38.671875 -71.1875 C 40.109375 -71.1875 41.953125 -71.265625 44.203125 -71.421875 C 46.460938 -71.585938 48.210938 -71.769531 49.453125 -71.96875 C 50.367188 -72.039062 51.019531 -71.894531 51.40625 -71.53125 C 51.800781 -71.175781 52 -70.570312 52 -69.71875 C 52 -69.457031 51.929688 -68.738281 51.796875 -67.5625 C 51.671875 -66.582031 51.609375 -60.085938 51.609375 -48.078125 L 51.609375 -25.953125 C 51.609375 -22.617188 51.65625 -18.941406 51.75 -14.921875 C 51.851562 -10.910156 51.96875 -7.304688 52.09375 -4.109375 C 52.226562 -0.910156 52.296875 -0.03125 52.296875 -1.46875 C 52.296875 -0.425781 51.769531 0.09375 50.71875 0.09375 C 50.257812 0.09375 49.867188 0.0625 49.546875 0 C 49.285156 -0.0625 48.765625 -0.09375 47.984375 -0.09375 C 47.203125 -0.09375 45.960938 -0.03125 44.265625 0.09375 C 42.429688 0.226562 41.15625 0.296875 40.4375 0.296875 C 39.195312 0.296875 38.265625 0.0351562 37.640625 -0.484375 C 37.023438 -1.003906 36.390625 -1.953125 35.734375 -3.328125 L 34.078125 -6.65625 C 32.117188 -11.03125 30.390625 -14.457031 28.890625 -16.9375 C 28.035156 -18.375 25.878906 -22.320312 22.421875 -28.78125 L 18.109375 -36.921875 L 18.109375 -30.9375 C 18.109375 -30.414062 18.09375 -29.765625 18.0625 -28.984375 C 18.03125 -28.203125 18.046875 -27.320312 18.109375 -26.34375 C 18.109375 -22.945312 18.15625 -18.503906 18.25 -13.015625 C 18.351562 -7.535156 18.503906 -4.242188 18.703125 -3.140625 C 18.765625 -2.804688 18.796875 -2.410156 18.796875 -1.953125 C 18.796875 -1.304688 18.664062 -0.898438 18.40625 -0.734375 C 18.144531 -0.566406 17.65625 -0.519531 16.9375 -0.59375 C 15.894531 -0.59375 14.671875 -0.523438 13.265625 -0.390625 C 11.859375 -0.265625 10.535156 -0.132812 9.296875 0 C 8.316406 0.132812 7.679688 -0.0234375 7.390625 -0.484375 C 7.097656 -0.941406 6.984375 -1.957031 7.046875 -3.53125 C 7.046875 -5.875 6.945312 -10.019531 6.75 -15.96875 C 6.488281 -22.164062 6.328125 -27.550781 6.265625 -32.125 C 6.265625 -36.757812 6.363281 -41.457031 6.5625 -46.21875 C 6.6875 -52.226562 6.75 -56.34375 6.75 -58.5625 C 6.75 -61.5625 6.65625 -63.75 6.46875 -65.125 C 6.332031 -66.289062 6.265625 -67.039062 6.265625 -67.375 C 6.265625 -68.550781 6.457031 -69.347656 6.84375 -69.765625 C 7.238281 -70.191406 7.765625 -70.40625 8.421875 -70.40625 C 8.742188 -70.40625 9.394531 -70.390625 10.375 -70.359375 C 11.351562 -70.328125 12.757812 -70.539062 14.59375 -71 C 15.3125 -71.125 16.03125 -71.1875 16.75 -71.1875 C 17.132812 -71.1875 17.6875 -71.15625 18.40625 -71.09375 C 19.125 -71.03125 20.070312 -71 21.25 -71 C 22.75 -71 24.003906 -70.410156 25.015625 -69.234375 C 26.023438 -68.054688 27.117188 -66.390625 28.296875 -64.234375 L 29.28125 -62.46875 C 30.0625 -61.03125 31.007812 -59.5 32.125 -57.875 L 33.59375 -55.625 Z M 33.59375 -61 "/></g></g></g><g fill="#eaced1" fill-opacity="1"><g transform="translate(266.485731, 214.76099)"><g><path d="M 55.8125 -1.953125 C 56.144531 -1.304688 56.3125 -0.882812 56.3125 -0.6875 C 56.3125 -0.164062 55.722656 0.09375 54.546875 0.09375 L 47.484375 0.09375 C 47.222656 0.09375 46.960938 -0.128906 46.703125 -0.578125 C 46.441406 -1.035156 46.210938 -1.492188 46.015625 -1.953125 C 45.828125 -2.410156 45.664062 -2.804688 45.53125 -3.140625 C 45.207031 -3.785156 44.601562 -5.28125 43.71875 -7.625 C 42.84375 -9.976562 42.175781 -11.84375 41.71875 -13.21875 C 41.519531 -13.875 41.125 -14.835938 40.53125 -16.109375 C 39.945312 -17.378906 39.523438 -18.273438 39.265625 -18.796875 C 39.003906 -19.578125 38.757812 -20.097656 38.53125 -20.359375 C 38.300781 -20.628906 37.957031 -20.765625 37.5 -20.765625 C 37.039062 -20.765625 36.46875 -20.726562 35.78125 -20.65625 C 35.101562 -20.59375 34.375 -20.53125 33.59375 -20.46875 C 33.0625 -20.332031 31.425781 -20.265625 28.6875 -20.265625 C 26.789062 -20.265625 24.929688 -20.203125 23.109375 -20.078125 C 22.523438 -20.003906 21.476562 -19.96875 19.96875 -19.96875 L 14.78125 -20.078125 C 14.457031 -20.078125 14.210938 -19.945312 14.046875 -19.6875 C 13.890625 -19.425781 13.773438 -19.113281 13.703125 -18.75 C 13.640625 -18.394531 13.578125 -18.117188 13.515625 -17.921875 L 12.921875 -15.46875 C 12.722656 -14.550781 12.476562 -13.488281 12.1875 -12.28125 C 11.894531 -11.082031 11.648438 -9.957031 11.453125 -8.90625 L 10.375 -4.703125 L 9.59375 -1.859375 C 9.394531 -1.078125 9.210938 -0.570312 9.046875 -0.34375 C 8.890625 -0.113281 8.648438 0 8.328125 0 L 2.546875 0 C 2.222656 0 2.0625 -0.128906 2.0625 -0.390625 C 2.0625 -0.523438 2.191406 -0.984375 2.453125 -1.765625 C 2.972656 -3.003906 3.425781 -4.242188 3.8125 -5.484375 C 6.226562 -13.578125 7.664062 -18.863281 8.125 -21.34375 C 8.71875 -24.613281 9.925781 -28.828125 11.75 -33.984375 C 12.332031 -36.203125 12.890625 -38.222656 13.421875 -40.046875 C 13.609375 -40.960938 13.898438 -42.070312 14.296875 -43.375 C 15.535156 -47.945312 16.773438 -52.222656 18.015625 -56.203125 L 20.46875 -64.046875 C 20.988281 -66.066406 21.640625 -68.15625 22.421875 -70.3125 C 22.816406 -71.289062 23.273438 -71.519531 23.796875 -71 C 24.179688 -70.738281 24.472656 -70.28125 24.671875 -69.625 C 24.867188 -68.96875 25 -68.507812 25.0625 -68.25 C 25.257812 -67.46875 26.992188 -63.550781 30.265625 -56.5 C 31.566406 -53.820312 32.96875 -50.328125 34.46875 -46.015625 C 35.125 -44.128906 36.921875 -40.050781 39.859375 -33.78125 C 41.359375 -30.71875 42.335938 -28.597656 42.796875 -27.421875 C 43.835938 -25.128906 46.644531 -19.578125 51.21875 -10.765625 L 52.390625 -8.328125 C 53.890625 -4.992188 55.03125 -2.867188 55.8125 -1.953125 Z M 30.15625 -34.265625 C 30.613281 -34.335938 31.003906 -34.375 31.328125 -34.375 C 31.660156 -34.375 31.921875 -34.40625 32.109375 -34.46875 C 32.304688 -34.53125 32.40625 -34.628906 32.40625 -34.765625 C 32.40625 -34.890625 32.3125 -35.148438 32.125 -35.546875 C 31.789062 -36.128906 31.035156 -37.773438 29.859375 -40.484375 C 28.691406 -43.191406 27.878906 -45.234375 27.421875 -46.609375 C 26.765625 -48.171875 26.253906 -49.472656 25.890625 -50.515625 C 25.535156 -51.566406 25.257812 -52.289062 25.0625 -52.6875 C 24.9375 -53.007812 24.789062 -53.332031 24.625 -53.65625 C 24.457031 -53.988281 24.304688 -54.25 24.171875 -54.4375 C 24.046875 -54.632812 23.921875 -54.734375 23.796875 -54.734375 C 23.597656 -54.734375 23.382812 -54.242188 23.15625 -53.265625 C 22.925781 -52.285156 22.75 -51.535156 22.625 -51.015625 C 21.445312 -47.234375 20.597656 -44.363281 20.078125 -42.40625 C 19.816406 -41.425781 19.441406 -40.234375 18.953125 -38.828125 C 18.460938 -37.421875 18.117188 -36.457031 17.921875 -35.9375 C 17.722656 -35.28125 17.625 -34.757812 17.625 -34.375 C 17.625 -33.976562 17.914062 -33.78125 18.5 -33.78125 C 19.875 -33.78125 21.976562 -33.828125 24.8125 -33.921875 C 27.65625 -34.023438 29.4375 -34.140625 30.15625 -34.265625 Z M 30.15625 -34.265625 "/></g></g></g><g fill="#eaced1" fill-opacity="1"><g transform="translate(323.667876, 214.76099)"><g><path d="M 26.921875 -69.03125 C 32.609375 -69.03125 36.820312 -67.921875 39.5625 -65.703125 C 42.300781 -63.484375 43.738281 -62.3125 43.875 -62.1875 C 44.519531 -61.726562 44.84375 -61.269531 44.84375 -60.8125 C 44.84375 -60.550781 44.710938 -60.289062 44.453125 -60.03125 C 44.253906 -59.769531 43.863281 -59.210938 43.28125 -58.359375 C 42.695312 -57.515625 42.238281 -57.09375 41.90625 -57.09375 C 41.582031 -57.09375 41.160156 -57.253906 40.640625 -57.578125 L 39.953125 -58.171875 C 34.992188 -61.753906 30.75 -63.546875 27.21875 -63.546875 C 22.71875 -63.546875 19.304688 -62.515625 16.984375 -60.453125 C 14.671875 -58.398438 13.515625 -55.8125 13.515625 -52.6875 C 13.515625 -50.007812 14.476562 -47.722656 16.40625 -45.828125 C 18.332031 -43.929688 20.859375 -42.132812 23.984375 -40.4375 C 24.898438 -40.050781 25.847656 -39.691406 26.828125 -39.359375 C 30.097656 -38.117188 32.957031 -36.796875 35.40625 -35.390625 C 37.851562 -33.992188 40.054688 -31.875 42.015625 -29.03125 C 43.972656 -26.195312 44.953125 -22.625 44.953125 -18.3125 C 44.953125 -10.9375 42.4375 -5.894531 37.40625 -3.1875 C 32.375 -0.476562 26.757812 0.875 20.5625 0.875 C 16.96875 0.875 13.71875 0.0625 10.8125 -1.5625 C 7.914062 -3.195312 5.847656 -4.632812 4.609375 -5.875 C 3.953125 -6.457031 3.785156 -7.046875 4.109375 -7.640625 C 4.171875 -7.765625 4.445312 -8.285156 4.9375 -9.203125 C 5.425781 -10.117188 5.867188 -10.578125 6.265625 -10.578125 L 6.46875 -10.578125 C 6.65625 -10.578125 6.832031 -10.523438 7 -10.421875 C 7.164062 -10.328125 7.363281 -10.148438 7.59375 -9.890625 C 7.820312 -9.628906 8.097656 -9.335938 8.421875 -9.015625 C 9.265625 -8.160156 10.925781 -7.191406 13.40625 -6.109375 C 15.894531 -5.035156 17.953125 -4.5 19.578125 -4.5 C 23.046875 -4.5 26.34375 -5.234375 29.46875 -6.703125 C 32.601562 -8.171875 34.171875 -11.289062 34.171875 -16.0625 C 34.171875 -18.082031 33.269531 -19.84375 31.46875 -21.34375 C 29.675781 -22.84375 26.890625 -24.609375 23.109375 -26.640625 L 18.90625 -28.984375 C 14.332031 -31.597656 10.753906 -34.40625 8.171875 -37.40625 C 5.597656 -40.40625 4.3125 -44.351562 4.3125 -49.25 C 4.3125 -53.300781 5.46875 -56.828125 7.78125 -59.828125 C 10.101562 -62.828125 13.007812 -65.109375 16.5 -66.671875 C 19.988281 -68.242188 23.460938 -69.03125 26.921875 -69.03125 Z M 26.921875 -69.03125 "/></g></g></g></svg>