<svg xmlns="http://www.w3.org/2000/svg" xmlns:xlink="http://www.w3.org/1999/xlink" width="250" zoomAndPan="magnify" viewBox="0 0 187.5 112.499997" height="150" preserveAspectRatio="xMidYMid meet" version="1.0"><defs><g/></defs><g fill="#aabf62" fill-opacity="0.5412"><g transform="translate(7.112021, 95.248402)"><g><path d="M 24.546875 -31.828125 C 24.546875 -31.671875 24.519531 -31.265625 24.46875 -30.609375 C 24.425781 -29.953125 24.40625 -29.132812 24.40625 -28.15625 C 24.40625 -27.28125 24.453125 -26.09375 24.546875 -24.59375 C 24.546875 -23.75 24 -23.328125 22.90625 -23.328125 L 14.640625 -23.328125 L 14.546875 -18.5 C 14.515625 -17.96875 14.5 -16.632812 14.5 -14.5 C 14.5 -12.3125 14.515625 -10.179688 14.546875 -8.109375 C 14.578125 -6.046875 14.59375 -4.265625 14.59375 -2.765625 L 14.640625 -0.84375 L 14.640625 -0.609375 C 14.640625 -0.328125 14.597656 -0.15625 14.515625 -0.09375 C 14.441406 -0.03125 14.34375 0 14.21875 0 C 14.09375 0 14 0 13.9375 0 L 10.75 0 C 10.375 0 10.15625 -0.0625 10.09375 -0.1875 C 10.03125 -0.3125 10 -0.535156 10 -0.859375 C 10 -1.191406 10 -1.4375 10 -1.59375 L 10.1875 -7.421875 C 10.375 -12.484375 10.46875 -15.734375 10.46875 -17.171875 C 10.46875 -17.992188 10.4375 -19.21875 10.375 -20.84375 L 10.328125 -23.328125 C 8.078125 -23.328125 5.789062 -23.296875 3.46875 -23.234375 L 2.015625 -23.1875 C 1.609375 -23.1875 1.328125 -23.296875 1.171875 -23.515625 C 1.015625 -23.734375 0.984375 -23.984375 1.078125 -24.265625 L 1.125 -25.4375 C 1.1875 -27.25 1.21875 -28.925781 1.21875 -30.46875 C 1.21875 -31.21875 1.203125 -31.671875 1.171875 -31.828125 L 1.171875 -32.15625 C 1.171875 -32.5 1.238281 -32.703125 1.375 -32.765625 C 1.519531 -32.828125 1.734375 -32.859375 2.015625 -32.859375 L 6.671875 -32.859375 L 9.296875 -32.90625 C 10.921875 -32.96875 12.0625 -33 12.71875 -33 L 15.53125 -32.953125 C 17.789062 -32.890625 19.5625 -32.859375 20.84375 -32.859375 C 21.78125 -32.859375 22.390625 -32.875 22.671875 -32.90625 C 23.359375 -32.9375 23.84375 -32.832031 24.125 -32.59375 C 24.40625 -32.363281 24.546875 -32.109375 24.546875 -31.828125 Z M 24.546875 -31.828125 "/></g></g></g><g fill="#aabf62" fill-opacity="0.5412"><g transform="translate(32.553141, 95.248402)"><g><path d="M 20.515625 -32.765625 C 22.390625 -31.515625 23.894531 -29.820312 25.03125 -27.6875 C 26.175781 -25.5625 26.972656 -23.488281 27.421875 -21.46875 C 27.878906 -19.457031 28.109375 -17.867188 28.109375 -16.703125 C 28.109375 -14.765625 27.800781 -12.515625 27.1875 -9.953125 C 26.582031 -7.390625 25.28125 -5.003906 23.28125 -2.796875 C 21.28125 -0.585938 18.382812 0.515625 14.59375 0.515625 C 9.40625 0.515625 5.710938 -2.503906 3.515625 -8.546875 C 2.546875 -11.265625 2 -14.300781 1.875 -17.65625 C 1.875 -20.40625 2.453125 -23.019531 3.609375 -25.5 C 4.765625 -27.988281 6.289062 -29.984375 8.1875 -31.484375 C 10.082031 -32.992188 12.03125 -33.75 14.03125 -33.75 C 15.84375 -33.75 17.195312 -33.703125 18.09375 -33.609375 C 18.988281 -33.515625 19.796875 -33.234375 20.515625 -32.765625 Z M 14.359375 -2.109375 C 17.679688 -2.109375 20.15625 -3.492188 21.78125 -6.265625 C 23.40625 -9.035156 24.21875 -12.515625 24.21875 -16.703125 C 24.21875 -19.273438 23.832031 -21.644531 23.0625 -23.8125 C 22.300781 -25.988281 21.222656 -27.726562 19.828125 -29.03125 C 18.441406 -30.332031 16.835938 -30.984375 15.015625 -30.984375 C 14.859375 -30.984375 14.441406 -30.984375 13.765625 -30.984375 C 13.097656 -30.984375 12.515625 -30.875 12.015625 -30.65625 C 11.515625 -30.4375 11.0625 -30.109375 10.65625 -29.671875 C 9.625 -28.628906 8.753906 -27.675781 8.046875 -26.8125 C 7.347656 -25.957031 6.644531 -24.6875 5.9375 -23 C 5.226562 -21.3125 4.875 -19.351562 4.875 -17.125 C 4.875 -14.5 5.195312 -12.050781 5.84375 -9.78125 C 6.488281 -7.519531 7.515625 -5.675781 8.921875 -4.25 C 10.328125 -2.820312 12.140625 -2.109375 14.359375 -2.109375 Z M 14.359375 -2.109375 "/></g></g></g><g fill="#aabf62" fill-opacity="0.5412"><g transform="translate(62.547377, 95.248402)"><g><path d="M 16.09375 -29.234375 C 16.09375 -31.179688 16.109375 -32.390625 16.140625 -32.859375 C 16.140625 -33.453125 16.34375 -33.8125 16.75 -33.9375 C 17.15625 -34.0625 17.753906 -34.125 18.546875 -34.125 C 19.234375 -34.125 20.113281 -34.160156 21.1875 -34.234375 C 22.269531 -34.316406 23.109375 -34.40625 23.703125 -34.5 C 24.140625 -34.53125 24.453125 -34.457031 24.640625 -34.28125 C 24.828125 -34.113281 24.921875 -33.828125 24.921875 -33.421875 C 24.921875 -33.296875 24.890625 -32.953125 24.828125 -32.390625 C 24.765625 -31.921875 24.734375 -28.804688 24.734375 -23.046875 L 24.734375 -12.4375 C 24.734375 -10.84375 24.753906 -9.082031 24.796875 -7.15625 C 24.847656 -5.226562 24.90625 -3.5 24.96875 -1.96875 C 25.03125 -0.4375 25.0625 -0.015625 25.0625 -0.703125 C 25.0625 -0.203125 24.8125 0.046875 24.3125 0.046875 C 24.09375 0.046875 23.90625 0.03125 23.75 0 C 23.625 -0.03125 23.375 -0.046875 23 -0.046875 C 22.625 -0.046875 22.03125 -0.015625 21.21875 0.046875 C 20.34375 0.109375 19.734375 0.140625 19.390625 0.140625 C 18.796875 0.140625 18.347656 0.015625 18.046875 -0.234375 C 17.742188 -0.484375 17.4375 -0.9375 17.125 -1.59375 L 16.328125 -3.1875 C 15.390625 -5.289062 14.5625 -6.9375 13.84375 -8.125 C 13.4375 -8.8125 12.40625 -10.703125 10.75 -13.796875 L 8.6875 -17.703125 L 8.6875 -14.828125 C 8.6875 -14.578125 8.675781 -14.265625 8.65625 -13.890625 C 8.644531 -13.515625 8.65625 -13.09375 8.6875 -12.625 C 8.6875 -11 8.707031 -8.867188 8.75 -6.234375 C 8.800781 -3.609375 8.875 -2.03125 8.96875 -1.5 C 9 -1.34375 9.015625 -1.15625 9.015625 -0.9375 C 9.015625 -0.625 8.953125 -0.425781 8.828125 -0.34375 C 8.703125 -0.269531 8.46875 -0.25 8.125 -0.28125 C 7.625 -0.28125 7.035156 -0.25 6.359375 -0.1875 C 5.679688 -0.125 5.046875 -0.0625 4.453125 0 C 3.984375 0.0625 3.675781 -0.015625 3.53125 -0.234375 C 3.394531 -0.453125 3.34375 -0.9375 3.375 -1.6875 C 3.375 -2.8125 3.328125 -4.800781 3.234375 -7.65625 C 3.109375 -10.625 3.03125 -13.203125 3 -15.390625 C 3 -17.617188 3.046875 -19.875 3.140625 -22.15625 C 3.203125 -25.03125 3.234375 -27 3.234375 -28.0625 C 3.234375 -29.507812 3.1875 -30.5625 3.09375 -31.21875 C 3.03125 -31.78125 3 -32.140625 3 -32.296875 C 3 -32.859375 3.09375 -33.238281 3.28125 -33.4375 C 3.46875 -33.644531 3.71875 -33.75 4.03125 -33.75 C 4.1875 -33.75 4.5 -33.738281 4.96875 -33.71875 C 5.4375 -33.707031 6.113281 -33.8125 7 -34.03125 C 7.34375 -34.09375 7.6875 -34.125 8.03125 -34.125 C 8.21875 -34.125 8.484375 -34.109375 8.828125 -34.078125 C 9.171875 -34.046875 9.625 -34.03125 10.1875 -34.03125 C 10.90625 -34.03125 11.503906 -33.75 11.984375 -33.1875 C 12.472656 -32.625 13 -31.828125 13.5625 -30.796875 L 14.03125 -29.953125 C 14.40625 -29.253906 14.859375 -28.515625 15.390625 -27.734375 L 16.09375 -26.65625 Z M 16.09375 -29.234375 "/></g></g></g><g fill="#aabf62" fill-opacity="0.5412"><g transform="translate(90.570158, 95.248402)"><g><path d="M 4.359375 -33.09375 C 4.765625 -33.0625 5.164062 -33.050781 5.5625 -33.0625 C 5.957031 -33.082031 6.296875 -33.09375 6.578125 -33.09375 C 7.265625 -33.09375 7.765625 -33.078125 8.078125 -33.046875 C 8.453125 -33.015625 8.71875 -32.9375 8.875 -32.8125 C 9.03125 -32.6875 9.109375 -32.515625 9.109375 -32.296875 C 9.109375 -32.140625 9.09375 -31.96875 9.0625 -31.78125 C 9.03125 -31.59375 9 -31.421875 8.96875 -31.265625 C 8.625 -28.597656 8.4375 -25.859375 8.40625 -23.046875 C 8.375 -22.234375 8.359375 -20.984375 8.359375 -19.296875 L 8.40625 -13.609375 C 8.4375 -13.140625 8.453125 -12.65625 8.453125 -12.15625 L 8.5 -10.28125 C 8.5625 -8.65625 8.59375 -7.453125 8.59375 -6.671875 C 8.59375 -6.066406 8.578125 -5.703125 8.546875 -5.578125 C 8.515625 -5.453125 8.5 -5.09375 8.5 -4.5 L 8.546875 -1.921875 C 8.578125 -1.546875 8.59375 -1.078125 8.59375 -0.515625 C 8.625 -0.109375 8.503906 0.144531 8.234375 0.25 C 7.972656 0.363281 7.625 0.40625 7.1875 0.375 L 2.90625 0.375 C 2.4375 0.40625 2.140625 0.300781 2.015625 0.0625 C 1.890625 -0.164062 1.8125 -0.546875 1.78125 -1.078125 C 1.71875 -1.296875 1.75 -1.875 1.875 -2.8125 C 2 -3.6875 2.0625 -4.4375 2.0625 -5.0625 C 2.0625 -5.28125 2.171875 -7.394531 2.390625 -11.40625 C 2.578125 -14.34375 2.671875 -15.953125 2.671875 -16.234375 L 2.765625 -20.84375 L 2.859375 -25.109375 L 2.953125 -27.640625 L 3.046875 -29.328125 L 3.046875 -31.3125 C 3.046875 -32.53125 3.359375 -33.140625 3.984375 -33.140625 C 4.140625 -33.140625 4.265625 -33.125 4.359375 -33.09375 Z M 4.359375 -33.09375 "/></g></g></g><g fill="#aabf62" fill-opacity="0.5412"><g transform="translate(101.97642, 95.248402)"><g><path d="M 16.09375 -29.234375 C 16.09375 -31.179688 16.109375 -32.390625 16.140625 -32.859375 C 16.140625 -33.453125 16.34375 -33.8125 16.75 -33.9375 C 17.15625 -34.0625 17.753906 -34.125 18.546875 -34.125 C 19.234375 -34.125 20.113281 -34.160156 21.1875 -34.234375 C 22.269531 -34.316406 23.109375 -34.40625 23.703125 -34.5 C 24.140625 -34.53125 24.453125 -34.457031 24.640625 -34.28125 C 24.828125 -34.113281 24.921875 -33.828125 24.921875 -33.421875 C 24.921875 -33.296875 24.890625 -32.953125 24.828125 -32.390625 C 24.765625 -31.921875 24.734375 -28.804688 24.734375 -23.046875 L 24.734375 -12.4375 C 24.734375 -10.84375 24.753906 -9.082031 24.796875 -7.15625 C 24.847656 -5.226562 24.90625 -3.5 24.96875 -1.96875 C 25.03125 -0.4375 25.0625 -0.015625 25.0625 -0.703125 C 25.0625 -0.203125 24.8125 0.046875 24.3125 0.046875 C 24.09375 0.046875 23.90625 0.03125 23.75 0 C 23.625 -0.03125 23.375 -0.046875 23 -0.046875 C 22.625 -0.046875 22.03125 -0.015625 21.21875 0.046875 C 20.34375 0.109375 19.734375 0.140625 19.390625 0.140625 C 18.796875 0.140625 18.347656 0.015625 18.046875 -0.234375 C 17.742188 -0.484375 17.4375 -0.9375 17.125 -1.59375 L 16.328125 -3.1875 C 15.390625 -5.289062 14.5625 -6.9375 13.84375 -8.125 C 13.4375 -8.8125 12.40625 -10.703125 10.75 -13.796875 L 8.6875 -17.703125 L 8.6875 -14.828125 C 8.6875 -14.578125 8.675781 -14.265625 8.65625 -13.890625 C 8.644531 -13.515625 8.65625 -13.09375 8.6875 -12.625 C 8.6875 -11 8.707031 -8.867188 8.75 -6.234375 C 8.800781 -3.609375 8.875 -2.03125 8.96875 -1.5 C 9 -1.34375 9.015625 -1.15625 9.015625 -0.9375 C 9.015625 -0.625 8.953125 -0.425781 8.828125 -0.34375 C 8.703125 -0.269531 8.46875 -0.25 8.125 -0.28125 C 7.625 -0.28125 7.035156 -0.25 6.359375 -0.1875 C 5.679688 -0.125 5.046875 -0.0625 4.453125 0 C 3.984375 0.0625 3.675781 -0.015625 3.53125 -0.234375 C 3.394531 -0.453125 3.34375 -0.9375 3.375 -1.6875 C 3.375 -2.8125 3.328125 -4.800781 3.234375 -7.65625 C 3.109375 -10.625 3.03125 -13.203125 3 -15.390625 C 3 -17.617188 3.046875 -19.875 3.140625 -22.15625 C 3.203125 -25.03125 3.234375 -27 3.234375 -28.0625 C 3.234375 -29.507812 3.1875 -30.5625 3.09375 -31.21875 C 3.03125 -31.78125 3 -32.140625 3 -32.296875 C 3 -32.859375 3.09375 -33.238281 3.28125 -33.4375 C 3.46875 -33.644531 3.71875 -33.75 4.03125 -33.75 C 4.1875 -33.75 4.5 -33.738281 4.96875 -33.71875 C 5.4375 -33.707031 6.113281 -33.8125 7 -34.03125 C 7.34375 -34.09375 7.6875 -34.125 8.03125 -34.125 C 8.21875 -34.125 8.484375 -34.109375 8.828125 -34.078125 C 9.171875 -34.046875 9.625 -34.03125 10.1875 -34.03125 C 10.90625 -34.03125 11.503906 -33.75 11.984375 -33.1875 C 12.472656 -32.625 13 -31.828125 13.5625 -30.796875 L 14.03125 -29.953125 C 14.40625 -29.253906 14.859375 -28.515625 15.390625 -27.734375 L 16.09375 -26.65625 Z M 16.09375 -29.234375 "/></g></g></g><g fill="#aabf62" fill-opacity="0.5412"><g transform="translate(129.999202, 95.248402)"><g><path d="M 26.75 -0.9375 C 26.90625 -0.625 26.984375 -0.421875 26.984375 -0.328125 C 26.984375 -0.078125 26.703125 0.046875 26.140625 0.046875 L 22.765625 0.046875 C 22.640625 0.046875 22.515625 -0.0625 22.390625 -0.28125 C 22.265625 -0.5 22.15625 -0.71875 22.0625 -0.9375 C 21.96875 -1.15625 21.890625 -1.34375 21.828125 -1.5 C 21.671875 -1.8125 21.378906 -2.53125 20.953125 -3.65625 C 20.535156 -4.78125 20.21875 -5.675781 20 -6.34375 C 19.90625 -6.65625 19.71875 -7.113281 19.4375 -7.71875 C 19.15625 -8.332031 18.953125 -8.765625 18.828125 -9.015625 C 18.703125 -9.390625 18.582031 -9.640625 18.46875 -9.765625 C 18.363281 -9.890625 18.203125 -9.953125 17.984375 -9.953125 C 17.765625 -9.953125 17.488281 -9.9375 17.15625 -9.90625 C 16.820312 -9.875 16.46875 -9.84375 16.09375 -9.8125 C 15.84375 -9.75 15.0625 -9.71875 13.75 -9.71875 C 12.84375 -9.71875 11.953125 -9.6875 11.078125 -9.625 C 10.796875 -9.59375 10.296875 -9.578125 9.578125 -9.578125 L 7.09375 -9.625 C 6.9375 -9.625 6.816406 -9.5625 6.734375 -9.4375 C 6.660156 -9.3125 6.609375 -9.160156 6.578125 -8.984375 C 6.546875 -8.816406 6.515625 -8.6875 6.484375 -8.59375 L 6.203125 -7.421875 C 6.109375 -6.984375 5.988281 -6.472656 5.84375 -5.890625 C 5.695312 -5.304688 5.578125 -4.765625 5.484375 -4.265625 L 4.96875 -2.25 L 4.59375 -0.890625 C 4.5 -0.515625 4.410156 -0.269531 4.328125 -0.15625 C 4.253906 -0.0507812 4.140625 0 3.984375 0 L 1.21875 0 C 1.0625 0 0.984375 -0.0625 0.984375 -0.1875 C 0.984375 -0.25 1.046875 -0.46875 1.171875 -0.84375 C 1.421875 -1.4375 1.640625 -2.03125 1.828125 -2.625 C 2.984375 -6.507812 3.671875 -9.046875 3.890625 -10.234375 C 4.171875 -11.796875 4.75 -13.8125 5.625 -16.28125 C 5.914062 -17.351562 6.1875 -18.328125 6.4375 -19.203125 C 6.53125 -19.640625 6.671875 -20.171875 6.859375 -20.796875 C 7.453125 -22.984375 8.046875 -25.03125 8.640625 -26.9375 L 9.8125 -30.703125 C 10.0625 -31.671875 10.375 -32.671875 10.75 -33.703125 C 10.9375 -34.171875 11.15625 -34.28125 11.40625 -34.03125 C 11.59375 -33.90625 11.734375 -33.6875 11.828125 -33.375 C 11.921875 -33.0625 11.984375 -32.84375 12.015625 -32.71875 C 12.109375 -32.34375 12.9375 -30.460938 14.5 -27.078125 C 15.125 -25.796875 15.796875 -24.125 16.515625 -22.0625 C 16.828125 -21.15625 17.691406 -19.195312 19.109375 -16.1875 C 19.828125 -14.71875 20.296875 -13.703125 20.515625 -13.140625 C 21.015625 -12.046875 22.359375 -9.382812 24.546875 -5.15625 L 25.109375 -3.984375 C 25.828125 -2.390625 26.375 -1.375 26.75 -0.9375 Z M 14.453125 -16.421875 C 14.671875 -16.453125 14.859375 -16.46875 15.015625 -16.46875 C 15.171875 -16.46875 15.296875 -16.484375 15.390625 -16.515625 C 15.484375 -16.546875 15.53125 -16.59375 15.53125 -16.65625 C 15.53125 -16.71875 15.484375 -16.84375 15.390625 -17.03125 C 15.234375 -17.3125 14.875 -18.101562 14.3125 -19.40625 C 13.75 -20.707031 13.359375 -21.6875 13.140625 -22.34375 C 12.828125 -23.09375 12.582031 -23.71875 12.40625 -24.21875 C 12.238281 -24.71875 12.109375 -25.0625 12.015625 -25.25 C 11.953125 -25.40625 11.878906 -25.5625 11.796875 -25.71875 C 11.722656 -25.875 11.65625 -26 11.59375 -26.09375 C 11.53125 -26.1875 11.46875 -26.234375 11.40625 -26.234375 C 11.3125 -26.234375 11.207031 -26 11.09375 -25.53125 C 10.988281 -25.0625 10.90625 -24.703125 10.84375 -24.453125 C 10.28125 -22.640625 9.875 -21.265625 9.625 -20.328125 C 9.5 -19.859375 9.316406 -19.285156 9.078125 -18.609375 C 8.847656 -17.929688 8.6875 -17.46875 8.59375 -17.21875 C 8.5 -16.90625 8.453125 -16.65625 8.453125 -16.46875 C 8.453125 -16.28125 8.59375 -16.1875 8.875 -16.1875 C 9.53125 -16.1875 10.535156 -16.207031 11.890625 -16.25 C 13.253906 -16.300781 14.109375 -16.359375 14.453125 -16.421875 Z M 14.453125 -16.421875 "/></g></g></g><g fill="#aabf62" fill-opacity="0.5412"><g transform="translate(157.411768, 95.248402)"><g><path d="M 12.90625 -33.09375 C 15.625 -33.09375 17.640625 -32.5625 18.953125 -31.5 C 20.273438 -30.4375 20.96875 -29.875 21.03125 -29.8125 C 21.34375 -29.59375 21.5 -29.367188 21.5 -29.140625 C 21.5 -29.015625 21.4375 -28.890625 21.3125 -28.765625 C 21.21875 -28.640625 21.03125 -28.375 20.75 -27.96875 C 20.46875 -27.5625 20.25 -27.359375 20.09375 -27.359375 C 19.9375 -27.359375 19.734375 -27.4375 19.484375 -27.59375 L 19.15625 -27.875 C 16.769531 -29.601562 14.734375 -30.46875 13.046875 -30.46875 C 10.890625 -30.46875 9.253906 -29.972656 8.140625 -28.984375 C 7.035156 -27.992188 6.484375 -26.75 6.484375 -25.25 C 6.484375 -23.96875 6.941406 -22.875 7.859375 -21.96875 C 8.785156 -21.0625 10 -20.203125 11.5 -19.390625 C 11.9375 -19.203125 12.390625 -19.03125 12.859375 -18.875 C 14.421875 -18.28125 15.789062 -17.644531 16.96875 -16.96875 C 18.144531 -16.289062 19.203125 -15.269531 20.140625 -13.90625 C 21.078125 -12.550781 21.546875 -10.84375 21.546875 -8.78125 C 21.546875 -5.238281 20.335938 -2.816406 17.921875 -1.515625 C 15.515625 -0.222656 12.828125 0.421875 9.859375 0.421875 C 8.140625 0.421875 6.582031 0.03125 5.1875 -0.75 C 3.789062 -1.53125 2.796875 -2.21875 2.203125 -2.8125 C 1.890625 -3.09375 1.8125 -3.375 1.96875 -3.65625 C 2 -3.71875 2.128906 -3.96875 2.359375 -4.40625 C 2.597656 -4.84375 2.8125 -5.0625 3 -5.0625 L 3.09375 -5.0625 C 3.1875 -5.0625 3.269531 -5.035156 3.34375 -4.984375 C 3.425781 -4.941406 3.519531 -4.859375 3.625 -4.734375 C 3.738281 -4.609375 3.875 -4.46875 4.03125 -4.3125 C 4.4375 -3.90625 5.234375 -3.441406 6.421875 -2.921875 C 7.617188 -2.410156 8.609375 -2.15625 9.390625 -2.15625 C 11.046875 -2.15625 12.625 -2.503906 14.125 -3.203125 C 15.625 -3.910156 16.375 -5.410156 16.375 -7.703125 C 16.375 -8.671875 15.941406 -9.515625 15.078125 -10.234375 C 14.222656 -10.953125 12.890625 -11.796875 11.078125 -12.765625 L 9.0625 -13.890625 C 6.863281 -15.140625 5.144531 -16.484375 3.90625 -17.921875 C 2.675781 -19.367188 2.0625 -21.265625 2.0625 -23.609375 C 2.0625 -25.546875 2.613281 -27.234375 3.71875 -28.671875 C 4.832031 -30.117188 6.226562 -31.21875 7.90625 -31.96875 C 9.582031 -32.71875 11.25 -33.09375 12.90625 -33.09375 Z M 12.90625 -33.09375 "/></g></g></g><g fill="#95b1cc" fill-opacity="1"><g transform="translate(5.037283, 93.173662)"><g><path d="M 24.546875 -31.828125 C 24.546875 -31.671875 24.519531 -31.265625 24.46875 -30.609375 C 24.425781 -29.953125 24.40625 -29.132812 24.40625 -28.15625 C 24.40625 -27.28125 24.453125 -26.09375 24.546875 -24.59375 C 24.546875 -23.75 24 -23.328125 22.90625 -23.328125 L 14.640625 -23.328125 L 14.546875 -18.5 C 14.515625 -17.96875 14.5 -16.632812 14.5 -14.5 C 14.5 -12.3125 14.515625 -10.179688 14.546875 -8.109375 C 14.578125 -6.046875 14.59375 -4.265625 14.59375 -2.765625 L 14.640625 -0.84375 L 14.640625 -0.609375 C 14.640625 -0.328125 14.597656 -0.15625 14.515625 -0.09375 C 14.441406 -0.03125 14.34375 0 14.21875 0 C 14.09375 0 14 0 13.9375 0 L 10.75 0 C 10.375 0 10.15625 -0.0625 10.09375 -0.1875 C 10.03125 -0.3125 10 -0.535156 10 -0.859375 C 10 -1.191406 10 -1.4375 10 -1.59375 L 10.1875 -7.421875 C 10.375 -12.484375 10.46875 -15.734375 10.46875 -17.171875 C 10.46875 -17.992188 10.4375 -19.21875 10.375 -20.84375 L 10.328125 -23.328125 C 8.078125 -23.328125 5.789062 -23.296875 3.46875 -23.234375 L 2.015625 -23.1875 C 1.609375 -23.1875 1.328125 -23.296875 1.171875 -23.515625 C 1.015625 -23.734375 0.984375 -23.984375 1.078125 -24.265625 L 1.125 -25.4375 C 1.1875 -27.25 1.21875 -28.925781 1.21875 -30.46875 C 1.21875 -31.21875 1.203125 -31.671875 1.171875 -31.828125 L 1.171875 -32.15625 C 1.171875 -32.5 1.238281 -32.703125 1.375 -32.765625 C 1.519531 -32.828125 1.734375 -32.859375 2.015625 -32.859375 L 6.671875 -32.859375 L 9.296875 -32.90625 C 10.921875 -32.96875 12.0625 -33 12.71875 -33 L 15.53125 -32.953125 C 17.789062 -32.890625 19.5625 -32.859375 20.84375 -32.859375 C 21.78125 -32.859375 22.390625 -32.875 22.671875 -32.90625 C 23.359375 -32.9375 23.84375 -32.832031 24.125 -32.59375 C 24.40625 -32.363281 24.546875 -32.109375 24.546875 -31.828125 Z M 24.546875 -31.828125 "/></g></g></g><g fill="#95b1cc" fill-opacity="1"><g transform="translate(30.478403, 93.173662)"><g><path d="M 20.515625 -32.765625 C 22.390625 -31.515625 23.894531 -29.820312 25.03125 -27.6875 C 26.175781 -25.5625 26.972656 -23.488281 27.421875 -21.46875 C 27.878906 -19.457031 28.109375 -17.867188 28.109375 -16.703125 C 28.109375 -14.765625 27.800781 -12.515625 27.1875 -9.953125 C 26.582031 -7.390625 25.28125 -5.003906 23.28125 -2.796875 C 21.28125 -0.585938 18.382812 0.515625 14.59375 0.515625 C 9.40625 0.515625 5.710938 -2.503906 3.515625 -8.546875 C 2.546875 -11.265625 2 -14.300781 1.875 -17.65625 C 1.875 -20.40625 2.453125 -23.019531 3.609375 -25.5 C 4.765625 -27.988281 6.289062 -29.984375 8.1875 -31.484375 C 10.082031 -32.992188 12.03125 -33.75 14.03125 -33.75 C 15.84375 -33.75 17.195312 -33.703125 18.09375 -33.609375 C 18.988281 -33.515625 19.796875 -33.234375 20.515625 -32.765625 Z M 14.359375 -2.109375 C 17.679688 -2.109375 20.15625 -3.492188 21.78125 -6.265625 C 23.40625 -9.035156 24.21875 -12.515625 24.21875 -16.703125 C 24.21875 -19.273438 23.832031 -21.644531 23.0625 -23.8125 C 22.300781 -25.988281 21.222656 -27.726562 19.828125 -29.03125 C 18.441406 -30.332031 16.835938 -30.984375 15.015625 -30.984375 C 14.859375 -30.984375 14.441406 -30.984375 13.765625 -30.984375 C 13.097656 -30.984375 12.515625 -30.875 12.015625 -30.65625 C 11.515625 -30.4375 11.0625 -30.109375 10.65625 -29.671875 C 9.625 -28.628906 8.753906 -27.675781 8.046875 -26.8125 C 7.347656 -25.957031 6.644531 -24.6875 5.9375 -23 C 5.226562 -21.3125 4.875 -19.351562 4.875 -17.125 C 4.875 -14.5 5.195312 -12.050781 5.84375 -9.78125 C 6.488281 -7.519531 7.515625 -5.675781 8.921875 -4.25 C 10.328125 -2.820312 12.140625 -2.109375 14.359375 -2.109375 Z M 14.359375 -2.109375 "/></g></g></g><g fill="#95b1cc" fill-opacity="1"><g transform="translate(60.472639, 93.173662)"><g><path d="M 16.09375 -29.234375 C 16.09375 -31.179688 16.109375 -32.390625 16.140625 -32.859375 C 16.140625 -33.453125 16.34375 -33.8125 16.75 -33.9375 C 17.15625 -34.0625 17.753906 -34.125 18.546875 -34.125 C 19.234375 -34.125 20.113281 -34.160156 21.1875 -34.234375 C 22.269531 -34.316406 23.109375 -34.40625 23.703125 -34.5 C 24.140625 -34.53125 24.453125 -34.457031 24.640625 -34.28125 C 24.828125 -34.113281 24.921875 -33.828125 24.921875 -33.421875 C 24.921875 -33.296875 24.890625 -32.953125 24.828125 -32.390625 C 24.765625 -31.921875 24.734375 -28.804688 24.734375 -23.046875 L 24.734375 -12.4375 C 24.734375 -10.84375 24.753906 -9.082031 24.796875 -7.15625 C 24.847656 -5.226562 24.90625 -3.5 24.96875 -1.96875 C 25.03125 -0.4375 25.0625 -0.015625 25.0625 -0.703125 C 25.0625 -0.203125 24.8125 0.046875 24.3125 0.046875 C 24.09375 0.046875 23.90625 0.03125 23.75 0 C 23.625 -0.03125 23.375 -0.046875 23 -0.046875 C 22.625 -0.046875 22.03125 -0.015625 21.21875 0.046875 C 20.34375 0.109375 19.734375 0.140625 19.390625 0.140625 C 18.796875 0.140625 18.347656 0.015625 18.046875 -0.234375 C 17.742188 -0.484375 17.4375 -0.9375 17.125 -1.59375 L 16.328125 -3.1875 C 15.390625 -5.289062 14.5625 -6.9375 13.84375 -8.125 C 13.4375 -8.8125 12.40625 -10.703125 10.75 -13.796875 L 8.6875 -17.703125 L 8.6875 -14.828125 C 8.6875 -14.578125 8.675781 -14.265625 8.65625 -13.890625 C 8.644531 -13.515625 8.65625 -13.09375 8.6875 -12.625 C 8.6875 -11 8.707031 -8.867188 8.75 -6.234375 C 8.800781 -3.609375 8.875 -2.03125 8.96875 -1.5 C 9 -1.34375 9.015625 -1.15625 9.015625 -0.9375 C 9.015625 -0.625 8.953125 -0.425781 8.828125 -0.34375 C 8.703125 -0.269531 8.46875 -0.25 8.125 -0.28125 C 7.625 -0.28125 7.035156 -0.25 6.359375 -0.1875 C 5.679688 -0.125 5.046875 -0.0625 4.453125 0 C 3.984375 0.0625 3.675781 -0.015625 3.53125 -0.234375 C 3.394531 -0.453125 3.34375 -0.9375 3.375 -1.6875 C 3.375 -2.8125 3.328125 -4.800781 3.234375 -7.65625 C 3.109375 -10.625 3.03125 -13.203125 3 -15.390625 C 3 -17.617188 3.046875 -19.875 3.140625 -22.15625 C 3.203125 -25.03125 3.234375 -27 3.234375 -28.0625 C 3.234375 -29.507812 3.1875 -30.5625 3.09375 -31.21875 C 3.03125 -31.78125 3 -32.140625 3 -32.296875 C 3 -32.859375 3.09375 -33.238281 3.28125 -33.4375 C 3.46875 -33.644531 3.71875 -33.75 4.03125 -33.75 C 4.1875 -33.75 4.5 -33.738281 4.96875 -33.71875 C 5.4375 -33.707031 6.113281 -33.8125 7 -34.03125 C 7.34375 -34.09375 7.6875 -34.125 8.03125 -34.125 C 8.21875 -34.125 8.484375 -34.109375 8.828125 -34.078125 C 9.171875 -34.046875 9.625 -34.03125 10.1875 -34.03125 C 10.90625 -34.03125 11.503906 -33.75 11.984375 -33.1875 C 12.472656 -32.625 13 -31.828125 13.5625 -30.796875 L 14.03125 -29.953125 C 14.40625 -29.253906 14.859375 -28.515625 15.390625 -27.734375 L 16.09375 -26.65625 Z M 16.09375 -29.234375 "/></g></g></g><g fill="#95b1cc" fill-opacity="1"><g transform="translate(88.49542, 93.173662)"><g><path d="M 4.359375 -33.09375 C 4.765625 -33.0625 5.164062 -33.050781 5.5625 -33.0625 C 5.957031 -33.082031 6.296875 -33.09375 6.578125 -33.09375 C 7.265625 -33.09375 7.765625 -33.078125 8.078125 -33.046875 C 8.453125 -33.015625 8.71875 -32.9375 8.875 -32.8125 C 9.03125 -32.6875 9.109375 -32.515625 9.109375 -32.296875 C 9.109375 -32.140625 9.09375 -31.96875 9.0625 -31.78125 C 9.03125 -31.59375 9 -31.421875 8.96875 -31.265625 C 8.625 -28.597656 8.4375 -25.859375 8.40625 -23.046875 C 8.375 -22.234375 8.359375 -20.984375 8.359375 -19.296875 L 8.40625 -13.609375 C 8.4375 -13.140625 8.453125 -12.65625 8.453125 -12.15625 L 8.5 -10.28125 C 8.5625 -8.65625 8.59375 -7.453125 8.59375 -6.671875 C 8.59375 -6.066406 8.578125 -5.703125 8.546875 -5.578125 C 8.515625 -5.453125 8.5 -5.09375 8.5 -4.5 L 8.546875 -1.921875 C 8.578125 -1.546875 8.59375 -1.078125 8.59375 -0.515625 C 8.625 -0.109375 8.503906 0.144531 8.234375 0.25 C 7.972656 0.363281 7.625 0.40625 7.1875 0.375 L 2.90625 0.375 C 2.4375 0.40625 2.140625 0.300781 2.015625 0.0625 C 1.890625 -0.164062 1.8125 -0.546875 1.78125 -1.078125 C 1.71875 -1.296875 1.75 -1.875 1.875 -2.8125 C 2 -3.6875 2.0625 -4.4375 2.0625 -5.0625 C 2.0625 -5.28125 2.171875 -7.394531 2.390625 -11.40625 C 2.578125 -14.34375 2.671875 -15.953125 2.671875 -16.234375 L 2.765625 -20.84375 L 2.859375 -25.109375 L 2.953125 -27.640625 L 3.046875 -29.328125 L 3.046875 -31.3125 C 3.046875 -32.53125 3.359375 -33.140625 3.984375 -33.140625 C 4.140625 -33.140625 4.265625 -33.125 4.359375 -33.09375 Z M 4.359375 -33.09375 "/></g></g></g><g fill="#95b1cc" fill-opacity="1"><g transform="translate(99.901682, 93.173662)"><g><path d="M 16.09375 -29.234375 C 16.09375 -31.179688 16.109375 -32.390625 16.140625 -32.859375 C 16.140625 -33.453125 16.34375 -33.8125 16.75 -33.9375 C 17.15625 -34.0625 17.753906 -34.125 18.546875 -34.125 C 19.234375 -34.125 20.113281 -34.160156 21.1875 -34.234375 C 22.269531 -34.316406 23.109375 -34.40625 23.703125 -34.5 C 24.140625 -34.53125 24.453125 -34.457031 24.640625 -34.28125 C 24.828125 -34.113281 24.921875 -33.828125 24.921875 -33.421875 C 24.921875 -33.296875 24.890625 -32.953125 24.828125 -32.390625 C 24.765625 -31.921875 24.734375 -28.804688 24.734375 -23.046875 L 24.734375 -12.4375 C 24.734375 -10.84375 24.753906 -9.082031 24.796875 -7.15625 C 24.847656 -5.226562 24.90625 -3.5 24.96875 -1.96875 C 25.03125 -0.4375 25.0625 -0.015625 25.0625 -0.703125 C 25.0625 -0.203125 24.8125 0.046875 24.3125 0.046875 C 24.09375 0.046875 23.90625 0.03125 23.75 0 C 23.625 -0.03125 23.375 -0.046875 23 -0.046875 C 22.625 -0.046875 22.03125 -0.015625 21.21875 0.046875 C 20.34375 0.109375 19.734375 0.140625 19.390625 0.140625 C 18.796875 0.140625 18.347656 0.015625 18.046875 -0.234375 C 17.742188 -0.484375 17.4375 -0.9375 17.125 -1.59375 L 16.328125 -3.1875 C 15.390625 -5.289062 14.5625 -6.9375 13.84375 -8.125 C 13.4375 -8.8125 12.40625 -10.703125 10.75 -13.796875 L 8.6875 -17.703125 L 8.6875 -14.828125 C 8.6875 -14.578125 8.675781 -14.265625 8.65625 -13.890625 C 8.644531 -13.515625 8.65625 -13.09375 8.6875 -12.625 C 8.6875 -11 8.707031 -8.867188 8.75 -6.234375 C 8.800781 -3.609375 8.875 -2.03125 8.96875 -1.5 C 9 -1.34375 9.015625 -1.15625 9.015625 -0.9375 C 9.015625 -0.625 8.953125 -0.425781 8.828125 -0.34375 C 8.703125 -0.269531 8.46875 -0.25 8.125 -0.28125 C 7.625 -0.28125 7.035156 -0.25 6.359375 -0.1875 C 5.679688 -0.125 5.046875 -0.0625 4.453125 0 C 3.984375 0.0625 3.675781 -0.015625 3.53125 -0.234375 C 3.394531 -0.453125 3.34375 -0.9375 3.375 -1.6875 C 3.375 -2.8125 3.328125 -4.800781 3.234375 -7.65625 C 3.109375 -10.625 3.03125 -13.203125 3 -15.390625 C 3 -17.617188 3.046875 -19.875 3.140625 -22.15625 C 3.203125 -25.03125 3.234375 -27 3.234375 -28.0625 C 3.234375 -29.507812 3.1875 -30.5625 3.09375 -31.21875 C 3.03125 -31.78125 3 -32.140625 3 -32.296875 C 3 -32.859375 3.09375 -33.238281 3.28125 -33.4375 C 3.46875 -33.644531 3.71875 -33.75 4.03125 -33.75 C 4.1875 -33.75 4.5 -33.738281 4.96875 -33.71875 C 5.4375 -33.707031 6.113281 -33.8125 7 -34.03125 C 7.34375 -34.09375 7.6875 -34.125 8.03125 -34.125 C 8.21875 -34.125 8.484375 -34.109375 8.828125 -34.078125 C 9.171875 -34.046875 9.625 -34.03125 10.1875 -34.03125 C 10.90625 -34.03125 11.503906 -33.75 11.984375 -33.1875 C 12.472656 -32.625 13 -31.828125 13.5625 -30.796875 L 14.03125 -29.953125 C 14.40625 -29.253906 14.859375 -28.515625 15.390625 -27.734375 L 16.09375 -26.65625 Z M 16.09375 -29.234375 "/></g></g></g><g fill="#95b1cc" fill-opacity="1"><g transform="translate(127.924464, 93.173662)"><g><path d="M 26.75 -0.9375 C 26.90625 -0.625 26.984375 -0.421875 26.984375 -0.328125 C 26.984375 -0.078125 26.703125 0.046875 26.140625 0.046875 L 22.765625 0.046875 C 22.640625 0.046875 22.515625 -0.0625 22.390625 -0.28125 C 22.265625 -0.5 22.15625 -0.71875 22.0625 -0.9375 C 21.96875 -1.15625 21.890625 -1.34375 21.828125 -1.5 C 21.671875 -1.8125 21.378906 -2.53125 20.953125 -3.65625 C 20.535156 -4.78125 20.21875 -5.675781 20 -6.34375 C 19.90625 -6.65625 19.71875 -7.113281 19.4375 -7.71875 C 19.15625 -8.332031 18.953125 -8.765625 18.828125 -9.015625 C 18.703125 -9.390625 18.582031 -9.640625 18.46875 -9.765625 C 18.363281 -9.890625 18.203125 -9.953125 17.984375 -9.953125 C 17.765625 -9.953125 17.488281 -9.9375 17.15625 -9.90625 C 16.820312 -9.875 16.46875 -9.84375 16.09375 -9.8125 C 15.84375 -9.75 15.0625 -9.71875 13.75 -9.71875 C 12.84375 -9.71875 11.953125 -9.6875 11.078125 -9.625 C 10.796875 -9.59375 10.296875 -9.578125 9.578125 -9.578125 L 7.09375 -9.625 C 6.9375 -9.625 6.816406 -9.5625 6.734375 -9.4375 C 6.660156 -9.3125 6.609375 -9.160156 6.578125 -8.984375 C 6.546875 -8.816406 6.515625 -8.6875 6.484375 -8.59375 L 6.203125 -7.421875 C 6.109375 -6.984375 5.988281 -6.472656 5.84375 -5.890625 C 5.695312 -5.304688 5.578125 -4.765625 5.484375 -4.265625 L 4.96875 -2.25 L 4.59375 -0.890625 C 4.5 -0.515625 4.410156 -0.269531 4.328125 -0.15625 C 4.253906 -0.0507812 4.140625 0 3.984375 0 L 1.21875 0 C 1.0625 0 0.984375 -0.0625 0.984375 -0.1875 C 0.984375 -0.25 1.046875 -0.46875 1.171875 -0.84375 C 1.421875 -1.4375 1.640625 -2.03125 1.828125 -2.625 C 2.984375 -6.507812 3.671875 -9.046875 3.890625 -10.234375 C 4.171875 -11.796875 4.75 -13.8125 5.625 -16.28125 C 5.914062 -17.351562 6.1875 -18.328125 6.4375 -19.203125 C 6.53125 -19.640625 6.671875 -20.171875 6.859375 -20.796875 C 7.453125 -22.984375 8.046875 -25.03125 8.640625 -26.9375 L 9.8125 -30.703125 C 10.0625 -31.671875 10.375 -32.671875 10.75 -33.703125 C 10.9375 -34.171875 11.15625 -34.28125 11.40625 -34.03125 C 11.59375 -33.90625 11.734375 -33.6875 11.828125 -33.375 C 11.921875 -33.0625 11.984375 -32.84375 12.015625 -32.71875 C 12.109375 -32.34375 12.9375 -30.460938 14.5 -27.078125 C 15.125 -25.796875 15.796875 -24.125 16.515625 -22.0625 C 16.828125 -21.15625 17.691406 -19.195312 19.109375 -16.1875 C 19.828125 -14.71875 20.296875 -13.703125 20.515625 -13.140625 C 21.015625 -12.046875 22.359375 -9.382812 24.546875 -5.15625 L 25.109375 -3.984375 C 25.828125 -2.390625 26.375 -1.375 26.75 -0.9375 Z M 14.453125 -16.421875 C 14.671875 -16.453125 14.859375 -16.46875 15.015625 -16.46875 C 15.171875 -16.46875 15.296875 -16.484375 15.390625 -16.515625 C 15.484375 -16.546875 15.53125 -16.59375 15.53125 -16.65625 C 15.53125 -16.71875 15.484375 -16.84375 15.390625 -17.03125 C 15.234375 -17.3125 14.875 -18.101562 14.3125 -19.40625 C 13.75 -20.707031 13.359375 -21.6875 13.140625 -22.34375 C 12.828125 -23.09375 12.582031 -23.71875 12.40625 -24.21875 C 12.238281 -24.71875 12.109375 -25.0625 12.015625 -25.25 C 11.953125 -25.40625 11.878906 -25.5625 11.796875 -25.71875 C 11.722656 -25.875 11.65625 -26 11.59375 -26.09375 C 11.53125 -26.1875 11.46875 -26.234375 11.40625 -26.234375 C 11.3125 -26.234375 11.207031 -26 11.09375 -25.53125 C 10.988281 -25.0625 10.90625 -24.703125 10.84375 -24.453125 C 10.28125 -22.640625 9.875 -21.265625 9.625 -20.328125 C 9.5 -19.859375 9.316406 -19.285156 9.078125 -18.609375 C 8.847656 -17.929688 8.6875 -17.46875 8.59375 -17.21875 C 8.5 -16.90625 8.453125 -16.65625 8.453125 -16.46875 C 8.453125 -16.28125 8.59375 -16.1875 8.875 -16.1875 C 9.53125 -16.1875 10.535156 -16.207031 11.890625 -16.25 C 13.253906 -16.300781 14.109375 -16.359375 14.453125 -16.421875 Z M 14.453125 -16.421875 "/></g></g></g><g fill="#95b1cc" fill-opacity="1"><g transform="translate(155.33703, 93.173662)"><g><path d="M 12.90625 -33.09375 C 15.625 -33.09375 17.640625 -32.5625 18.953125 -31.5 C 20.273438 -30.4375 20.96875 -29.875 21.03125 -29.8125 C 21.34375 -29.59375 21.5 -29.367188 21.5 -29.140625 C 21.5 -29.015625 21.4375 -28.890625 21.3125 -28.765625 C 21.21875 -28.640625 21.03125 -28.375 20.75 -27.96875 C 20.46875 -27.5625 20.25 -27.359375 20.09375 -27.359375 C 19.9375 -27.359375 19.734375 -27.4375 19.484375 -27.59375 L 19.15625 -27.875 C 16.769531 -29.601562 14.734375 -30.46875 13.046875 -30.46875 C 10.890625 -30.46875 9.253906 -29.972656 8.140625 -28.984375 C 7.035156 -27.992188 6.484375 -26.75 6.484375 -25.25 C 6.484375 -23.96875 6.941406 -22.875 7.859375 -21.96875 C 8.785156 -21.0625 10 -20.203125 11.5 -19.390625 C 11.9375 -19.203125 12.390625 -19.03125 12.859375 -18.875 C 14.421875 -18.28125 15.789062 -17.644531 16.96875 -16.96875 C 18.144531 -16.289062 19.203125 -15.269531 20.140625 -13.90625 C 21.078125 -12.550781 21.546875 -10.84375 21.546875 -8.78125 C 21.546875 -5.238281 20.335938 -2.816406 17.921875 -1.515625 C 15.515625 -0.222656 12.828125 0.421875 9.859375 0.421875 C 8.140625 0.421875 6.582031 0.03125 5.1875 -0.75 C 3.789062 -1.53125 2.796875 -2.21875 2.203125 -2.8125 C 1.890625 -3.09375 1.8125 -3.375 1.96875 -3.65625 C 2 -3.71875 2.128906 -3.96875 2.359375 -4.40625 C 2.597656 -4.84375 2.8125 -5.0625 3 -5.0625 L 3.09375 -5.0625 C 3.1875 -5.0625 3.269531 -5.035156 3.34375 -4.984375 C 3.425781 -4.941406 3.519531 -4.859375 3.625 -4.734375 C 3.738281 -4.609375 3.875 -4.46875 4.03125 -4.3125 C 4.4375 -3.90625 5.234375 -3.441406 6.421875 -2.921875 C 7.617188 -2.410156 8.609375 -2.15625 9.390625 -2.15625 C 11.046875 -2.15625 12.625 -2.503906 14.125 -3.203125 C 15.625 -3.910156 16.375 -5.410156 16.375 -7.703125 C 16.375 -8.671875 15.941406 -9.515625 15.078125 -10.234375 C 14.222656 -10.953125 12.890625 -11.796875 11.078125 -12.765625 L 9.0625 -13.890625 C 6.863281 -15.140625 5.144531 -16.484375 3.90625 -17.921875 C 2.675781 -19.367188 2.0625 -21.265625 2.0625 -23.609375 C 2.0625 -25.546875 2.613281 -27.234375 3.71875 -28.671875 C 4.832031 -30.117188 6.226562 -31.21875 7.90625 -31.96875 C 9.582031 -32.71875 11.25 -33.09375 12.90625 -33.09375 Z M 12.90625 -33.09375 "/></g></g></g><g fill="#aabf62" fill-opacity="0.5412"><g transform="translate(181.028779, 95.248402)"><g/></g></g><g fill="#95b1cc" fill-opacity="1"><g transform="translate(178.954041, 93.173662)"><g/></g></g><g fill="#eaced1" fill-opacity="1"><g transform="translate(8.827176, 93.173662)"><g><path d="M 24.546875 -31.828125 C 24.546875 -31.671875 24.519531 -31.265625 24.46875 -30.609375 C 24.425781 -29.953125 24.40625 -29.132812 24.40625 -28.15625 C 24.40625 -27.28125 24.453125 -26.09375 24.546875 -24.59375 C 24.546875 -23.75 24 -23.328125 22.90625 -23.328125 L 14.640625 -23.328125 L 14.546875 -18.5 C 14.515625 -17.96875 14.5 -16.632812 14.5 -14.5 C 14.5 -12.3125 14.515625 -10.179688 14.546875 -8.109375 C 14.578125 -6.046875 14.59375 -4.265625 14.59375 -2.765625 L 14.640625 -0.84375 L 14.640625 -0.609375 C 14.640625 -0.328125 14.597656 -0.15625 14.515625 -0.09375 C 14.441406 -0.03125 14.34375 0 14.21875 0 C 14.09375 0 14 0 13.9375 0 L 10.75 0 C 10.375 0 10.15625 -0.0625 10.09375 -0.1875 C 10.03125 -0.3125 10 -0.535156 10 -0.859375 C 10 -1.191406 10 -1.4375 10 -1.59375 L 10.1875 -7.421875 C 10.375 -12.484375 10.46875 -15.734375 10.46875 -17.171875 C 10.46875 -17.992188 10.4375 -19.21875 10.375 -20.84375 L 10.328125 -23.328125 C 8.078125 -23.328125 5.789062 -23.296875 3.46875 -23.234375 L 2.015625 -23.1875 C 1.609375 -23.1875 1.328125 -23.296875 1.171875 -23.515625 C 1.015625 -23.734375 0.984375 -23.984375 1.078125 -24.265625 L 1.125 -25.4375 C 1.1875 -27.25 1.21875 -28.925781 1.21875 -30.46875 C 1.21875 -31.21875 1.203125 -31.671875 1.171875 -31.828125 L 1.171875 -32.15625 C 1.171875 -32.5 1.238281 -32.703125 1.375 -32.765625 C 1.519531 -32.828125 1.734375 -32.859375 2.015625 -32.859375 L 6.671875 -32.859375 L 9.296875 -32.90625 C 10.921875 -32.96875 12.0625 -33 12.71875 -33 L 15.53125 -32.953125 C 17.789062 -32.890625 19.5625 -32.859375 20.84375 -32.859375 C 21.78125 -32.859375 22.390625 -32.875 22.671875 -32.90625 C 23.359375 -32.9375 23.84375 -32.832031 24.125 -32.59375 C 24.40625 -32.363281 24.546875 -32.109375 24.546875 -31.828125 Z M 24.546875 -31.828125 "/></g></g></g><g fill="#eaced1" fill-opacity="1"><g transform="translate(34.268295, 93.173662)"><g><path d="M 20.515625 -32.765625 C 22.390625 -31.515625 23.894531 -29.820312 25.03125 -27.6875 C 26.175781 -25.5625 26.972656 -23.488281 27.421875 -21.46875 C 27.878906 -19.457031 28.109375 -17.867188 28.109375 -16.703125 C 28.109375 -14.765625 27.800781 -12.515625 27.1875 -9.953125 C 26.582031 -7.390625 25.28125 -5.003906 23.28125 -2.796875 C 21.28125 -0.585938 18.382812 0.515625 14.59375 0.515625 C 9.40625 0.515625 5.710938 -2.503906 3.515625 -8.546875 C 2.546875 -11.265625 2 -14.300781 1.875 -17.65625 C 1.875 -20.40625 2.453125 -23.019531 3.609375 -25.5 C 4.765625 -27.988281 6.289062 -29.984375 8.1875 -31.484375 C 10.082031 -32.992188 12.03125 -33.75 14.03125 -33.75 C 15.84375 -33.75 17.195312 -33.703125 18.09375 -33.609375 C 18.988281 -33.515625 19.796875 -33.234375 20.515625 -32.765625 Z M 14.359375 -2.109375 C 17.679688 -2.109375 20.15625 -3.492188 21.78125 -6.265625 C 23.40625 -9.035156 24.21875 -12.515625 24.21875 -16.703125 C 24.21875 -19.273438 23.832031 -21.644531 23.0625 -23.8125 C 22.300781 -25.988281 21.222656 -27.726562 19.828125 -29.03125 C 18.441406 -30.332031 16.835938 -30.984375 15.015625 -30.984375 C 14.859375 -30.984375 14.441406 -30.984375 13.765625 -30.984375 C 13.097656 -30.984375 12.515625 -30.875 12.015625 -30.65625 C 11.515625 -30.4375 11.0625 -30.109375 10.65625 -29.671875 C 9.625 -28.628906 8.753906 -27.675781 8.046875 -26.8125 C 7.347656 -25.957031 6.644531 -24.6875 5.9375 -23 C 5.226562 -21.3125 4.875 -19.351562 4.875 -17.125 C 4.875 -14.5 5.195312 -12.050781 5.84375 -9.78125 C 6.488281 -7.519531 7.515625 -5.675781 8.921875 -4.25 C 10.328125 -2.820312 12.140625 -2.109375 14.359375 -2.109375 Z M 14.359375 -2.109375 "/></g></g></g><g fill="#eaced1" fill-opacity="1"><g transform="translate(64.262531, 93.173662)"><g><path d="M 16.09375 -29.234375 C 16.09375 -31.179688 16.109375 -32.390625 16.140625 -32.859375 C 16.140625 -33.453125 16.34375 -33.8125 16.75 -33.9375 C 17.15625 -34.0625 17.753906 -34.125 18.546875 -34.125 C 19.234375 -34.125 20.113281 -34.160156 21.1875 -34.234375 C 22.269531 -34.316406 23.109375 -34.40625 23.703125 -34.5 C 24.140625 -34.53125 24.453125 -34.457031 24.640625 -34.28125 C 24.828125 -34.113281 24.921875 -33.828125 24.921875 -33.421875 C 24.921875 -33.296875 24.890625 -32.953125 24.828125 -32.390625 C 24.765625 -31.921875 24.734375 -28.804688 24.734375 -23.046875 L 24.734375 -12.4375 C 24.734375 -10.84375 24.753906 -9.082031 24.796875 -7.15625 C 24.847656 -5.226562 24.90625 -3.5 24.96875 -1.96875 C 25.03125 -0.4375 25.0625 -0.015625 25.0625 -0.703125 C 25.0625 -0.203125 24.8125 0.046875 24.3125 0.046875 C 24.09375 0.046875 23.90625 0.03125 23.75 0 C 23.625 -0.03125 23.375 -0.046875 23 -0.046875 C 22.625 -0.046875 22.03125 -0.015625 21.21875 0.046875 C 20.34375 0.109375 19.734375 0.140625 19.390625 0.140625 C 18.796875 0.140625 18.347656 0.015625 18.046875 -0.234375 C 17.742188 -0.484375 17.4375 -0.9375 17.125 -1.59375 L 16.328125 -3.1875 C 15.390625 -5.289062 14.5625 -6.9375 13.84375 -8.125 C 13.4375 -8.8125 12.40625 -10.703125 10.75 -13.796875 L 8.6875 -17.703125 L 8.6875 -14.828125 C 8.6875 -14.578125 8.675781 -14.265625 8.65625 -13.890625 C 8.644531 -13.515625 8.65625 -13.09375 8.6875 -12.625 C 8.6875 -11 8.707031 -8.867188 8.75 -6.234375 C 8.800781 -3.609375 8.875 -2.03125 8.96875 -1.5 C 9 -1.34375 9.015625 -1.15625 9.015625 -0.9375 C 9.015625 -0.625 8.953125 -0.425781 8.828125 -0.34375 C 8.703125 -0.269531 8.46875 -0.25 8.125 -0.28125 C 7.625 -0.28125 7.035156 -0.25 6.359375 -0.1875 C 5.679688 -0.125 5.046875 -0.0625 4.453125 0 C 3.984375 0.0625 3.675781 -0.015625 3.53125 -0.234375 C 3.394531 -0.453125 3.34375 -0.9375 3.375 -1.6875 C 3.375 -2.8125 3.328125 -4.800781 3.234375 -7.65625 C 3.109375 -10.625 3.03125 -13.203125 3 -15.390625 C 3 -17.617188 3.046875 -19.875 3.140625 -22.15625 C 3.203125 -25.03125 3.234375 -27 3.234375 -28.0625 C 3.234375 -29.507812 3.1875 -30.5625 3.09375 -31.21875 C 3.03125 -31.78125 3 -32.140625 3 -32.296875 C 3 -32.859375 3.09375 -33.238281 3.28125 -33.4375 C 3.46875 -33.644531 3.71875 -33.75 4.03125 -33.75 C 4.1875 -33.75 4.5 -33.738281 4.96875 -33.71875 C 5.4375 -33.707031 6.113281 -33.8125 7 -34.03125 C 7.34375 -34.09375 7.6875 -34.125 8.03125 -34.125 C 8.21875 -34.125 8.484375 -34.109375 8.828125 -34.078125 C 9.171875 -34.046875 9.625 -34.03125 10.1875 -34.03125 C 10.90625 -34.03125 11.503906 -33.75 11.984375 -33.1875 C 12.472656 -32.625 13 -31.828125 13.5625 -30.796875 L 14.03125 -29.953125 C 14.40625 -29.253906 14.859375 -28.515625 15.390625 -27.734375 L 16.09375 -26.65625 Z M 16.09375 -29.234375 "/></g></g></g><g fill="#eaced1" fill-opacity="1"><g transform="translate(92.285313, 93.173662)"><g><path d="M 4.359375 -33.09375 C 4.765625 -33.0625 5.164062 -33.050781 5.5625 -33.0625 C 5.957031 -33.082031 6.296875 -33.09375 6.578125 -33.09375 C 7.265625 -33.09375 7.765625 -33.078125 8.078125 -33.046875 C 8.453125 -33.015625 8.71875 -32.9375 8.875 -32.8125 C 9.03125 -32.6875 9.109375 -32.515625 9.109375 -32.296875 C 9.109375 -32.140625 9.09375 -31.96875 9.0625 -31.78125 C 9.03125 -31.59375 9 -31.421875 8.96875 -31.265625 C 8.625 -28.597656 8.4375 -25.859375 8.40625 -23.046875 C 8.375 -22.234375 8.359375 -20.984375 8.359375 -19.296875 L 8.40625 -13.609375 C 8.4375 -13.140625 8.453125 -12.65625 8.453125 -12.15625 L 8.5 -10.28125 C 8.5625 -8.65625 8.59375 -7.453125 8.59375 -6.671875 C 8.59375 -6.066406 8.578125 -5.703125 8.546875 -5.578125 C 8.515625 -5.453125 8.5 -5.09375 8.5 -4.5 L 8.546875 -1.921875 C 8.578125 -1.546875 8.59375 -1.078125 8.59375 -0.515625 C 8.625 -0.109375 8.503906 0.144531 8.234375 0.25 C 7.972656 0.363281 7.625 0.40625 7.1875 0.375 L 2.90625 0.375 C 2.4375 0.40625 2.140625 0.300781 2.015625 0.0625 C 1.890625 -0.164062 1.8125 -0.546875 1.78125 -1.078125 C 1.71875 -1.296875 1.75 -1.875 1.875 -2.8125 C 2 -3.6875 2.0625 -4.4375 2.0625 -5.0625 C 2.0625 -5.28125 2.171875 -7.394531 2.390625 -11.40625 C 2.578125 -14.34375 2.671875 -15.953125 2.671875 -16.234375 L 2.765625 -20.84375 L 2.859375 -25.109375 L 2.953125 -27.640625 L 3.046875 -29.328125 L 3.046875 -31.3125 C 3.046875 -32.53125 3.359375 -33.140625 3.984375 -33.140625 C 4.140625 -33.140625 4.265625 -33.125 4.359375 -33.09375 Z M 4.359375 -33.09375 "/></g></g></g><g fill="#eaced1" fill-opacity="1"><g transform="translate(103.691575, 93.173662)"><g><path d="M 16.09375 -29.234375 C 16.09375 -31.179688 16.109375 -32.390625 16.140625 -32.859375 C 16.140625 -33.453125 16.34375 -33.8125 16.75 -33.9375 C 17.15625 -34.0625 17.753906 -34.125 18.546875 -34.125 C 19.234375 -34.125 20.113281 -34.160156 21.1875 -34.234375 C 22.269531 -34.316406 23.109375 -34.40625 23.703125 -34.5 C 24.140625 -34.53125 24.453125 -34.457031 24.640625 -34.28125 C 24.828125 -34.113281 24.921875 -33.828125 24.921875 -33.421875 C 24.921875 -33.296875 24.890625 -32.953125 24.828125 -32.390625 C 24.765625 -31.921875 24.734375 -28.804688 24.734375 -23.046875 L 24.734375 -12.4375 C 24.734375 -10.84375 24.753906 -9.082031 24.796875 -7.15625 C 24.847656 -5.226562 24.90625 -3.5 24.96875 -1.96875 C 25.03125 -0.4375 25.0625 -0.015625 25.0625 -0.703125 C 25.0625 -0.203125 24.8125 0.046875 24.3125 0.046875 C 24.09375 0.046875 23.90625 0.03125 23.75 0 C 23.625 -0.03125 23.375 -0.046875 23 -0.046875 C 22.625 -0.046875 22.03125 -0.015625 21.21875 0.046875 C 20.34375 0.109375 19.734375 0.140625 19.390625 0.140625 C 18.796875 0.140625 18.347656 0.015625 18.046875 -0.234375 C 17.742188 -0.484375 17.4375 -0.9375 17.125 -1.59375 L 16.328125 -3.1875 C 15.390625 -5.289062 14.5625 -6.9375 13.84375 -8.125 C 13.4375 -8.8125 12.40625 -10.703125 10.75 -13.796875 L 8.6875 -17.703125 L 8.6875 -14.828125 C 8.6875 -14.578125 8.675781 -14.265625 8.65625 -13.890625 C 8.644531 -13.515625 8.65625 -13.09375 8.6875 -12.625 C 8.6875 -11 8.707031 -8.867188 8.75 -6.234375 C 8.800781 -3.609375 8.875 -2.03125 8.96875 -1.5 C 9 -1.34375 9.015625 -1.15625 9.015625 -0.9375 C 9.015625 -0.625 8.953125 -0.425781 8.828125 -0.34375 C 8.703125 -0.269531 8.46875 -0.25 8.125 -0.28125 C 7.625 -0.28125 7.035156 -0.25 6.359375 -0.1875 C 5.679688 -0.125 5.046875 -0.0625 4.453125 0 C 3.984375 0.0625 3.675781 -0.015625 3.53125 -0.234375 C 3.394531 -0.453125 3.34375 -0.9375 3.375 -1.6875 C 3.375 -2.8125 3.328125 -4.800781 3.234375 -7.65625 C 3.109375 -10.625 3.03125 -13.203125 3 -15.390625 C 3 -17.617188 3.046875 -19.875 3.140625 -22.15625 C 3.203125 -25.03125 3.234375 -27 3.234375 -28.0625 C 3.234375 -29.507812 3.1875 -30.5625 3.09375 -31.21875 C 3.03125 -31.78125 3 -32.140625 3 -32.296875 C 3 -32.859375 3.09375 -33.238281 3.28125 -33.4375 C 3.46875 -33.644531 3.71875 -33.75 4.03125 -33.75 C 4.1875 -33.75 4.5 -33.738281 4.96875 -33.71875 C 5.4375 -33.707031 6.113281 -33.8125 7 -34.03125 C 7.34375 -34.09375 7.6875 -34.125 8.03125 -34.125 C 8.21875 -34.125 8.484375 -34.109375 8.828125 -34.078125 C 9.171875 -34.046875 9.625 -34.03125 10.1875 -34.03125 C 10.90625 -34.03125 11.503906 -33.75 11.984375 -33.1875 C 12.472656 -32.625 13 -31.828125 13.5625 -30.796875 L 14.03125 -29.953125 C 14.40625 -29.253906 14.859375 -28.515625 15.390625 -27.734375 L 16.09375 -26.65625 Z M 16.09375 -29.234375 "/></g></g></g><g fill="#eaced1" fill-opacity="1"><g transform="translate(131.714357, 93.173662)"><g><path d="M 26.75 -0.9375 C 26.90625 -0.625 26.984375 -0.421875 26.984375 -0.328125 C 26.984375 -0.078125 26.703125 0.046875 26.140625 0.046875 L 22.765625 0.046875 C 22.640625 0.046875 22.515625 -0.0625 22.390625 -0.28125 C 22.265625 -0.5 22.15625 -0.71875 22.0625 -0.9375 C 21.96875 -1.15625 21.890625 -1.34375 21.828125 -1.5 C 21.671875 -1.8125 21.378906 -2.53125 20.953125 -3.65625 C 20.535156 -4.78125 20.21875 -5.675781 20 -6.34375 C 19.90625 -6.65625 19.71875 -7.113281 19.4375 -7.71875 C 19.15625 -8.332031 18.953125 -8.765625 18.828125 -9.015625 C 18.703125 -9.390625 18.582031 -9.640625 18.46875 -9.765625 C 18.363281 -9.890625 18.203125 -9.953125 17.984375 -9.953125 C 17.765625 -9.953125 17.488281 -9.9375 17.15625 -9.90625 C 16.820312 -9.875 16.46875 -9.84375 16.09375 -9.8125 C 15.84375 -9.75 15.0625 -9.71875 13.75 -9.71875 C 12.84375 -9.71875 11.953125 -9.6875 11.078125 -9.625 C 10.796875 -9.59375 10.296875 -9.578125 9.578125 -9.578125 L 7.09375 -9.625 C 6.9375 -9.625 6.816406 -9.5625 6.734375 -9.4375 C 6.660156 -9.3125 6.609375 -9.160156 6.578125 -8.984375 C 6.546875 -8.816406 6.515625 -8.6875 6.484375 -8.59375 L 6.203125 -7.421875 C 6.109375 -6.984375 5.988281 -6.472656 5.84375 -5.890625 C 5.695312 -5.304688 5.578125 -4.765625 5.484375 -4.265625 L 4.96875 -2.25 L 4.59375 -0.890625 C 4.5 -0.515625 4.410156 -0.269531 4.328125 -0.15625 C 4.253906 -0.0507812 4.140625 0 3.984375 0 L 1.21875 0 C 1.0625 0 0.984375 -0.0625 0.984375 -0.1875 C 0.984375 -0.25 1.046875 -0.46875 1.171875 -0.84375 C 1.421875 -1.4375 1.640625 -2.03125 1.828125 -2.625 C 2.984375 -6.507812 3.671875 -9.046875 3.890625 -10.234375 C 4.171875 -11.796875 4.75 -13.8125 5.625 -16.28125 C 5.914062 -17.351562 6.1875 -18.328125 6.4375 -19.203125 C 6.53125 -19.640625 6.671875 -20.171875 6.859375 -20.796875 C 7.453125 -22.984375 8.046875 -25.03125 8.640625 -26.9375 L 9.8125 -30.703125 C 10.0625 -31.671875 10.375 -32.671875 10.75 -33.703125 C 10.9375 -34.171875 11.15625 -34.28125 11.40625 -34.03125 C 11.59375 -33.90625 11.734375 -33.6875 11.828125 -33.375 C 11.921875 -33.0625 11.984375 -32.84375 12.015625 -32.71875 C 12.109375 -32.34375 12.9375 -30.460938 14.5 -27.078125 C 15.125 -25.796875 15.796875 -24.125 16.515625 -22.0625 C 16.828125 -21.15625 17.691406 -19.195312 19.109375 -16.1875 C 19.828125 -14.71875 20.296875 -13.703125 20.515625 -13.140625 C 21.015625 -12.046875 22.359375 -9.382812 24.546875 -5.15625 L 25.109375 -3.984375 C 25.828125 -2.390625 26.375 -1.375 26.75 -0.9375 Z M 14.453125 -16.421875 C 14.671875 -16.453125 14.859375 -16.46875 15.015625 -16.46875 C 15.171875 -16.46875 15.296875 -16.484375 15.390625 -16.515625 C 15.484375 -16.546875 15.53125 -16.59375 15.53125 -16.65625 C 15.53125 -16.71875 15.484375 -16.84375 15.390625 -17.03125 C 15.234375 -17.3125 14.875 -18.101562 14.3125 -19.40625 C 13.75 -20.707031 13.359375 -21.6875 13.140625 -22.34375 C 12.828125 -23.09375 12.582031 -23.71875 12.40625 -24.21875 C 12.238281 -24.71875 12.109375 -25.0625 12.015625 -25.25 C 11.953125 -25.40625 11.878906 -25.5625 11.796875 -25.71875 C 11.722656 -25.875 11.65625 -26 11.59375 -26.09375 C 11.53125 -26.1875 11.46875 -26.234375 11.40625 -26.234375 C 11.3125 -26.234375 11.207031 -26 11.09375 -25.53125 C 10.988281 -25.0625 10.90625 -24.703125 10.84375 -24.453125 C 10.28125 -22.640625 9.875 -21.265625 9.625 -20.328125 C 9.5 -19.859375 9.316406 -19.285156 9.078125 -18.609375 C 8.847656 -17.929688 8.6875 -17.46875 8.59375 -17.21875 C 8.5 -16.90625 8.453125 -16.65625 8.453125 -16.46875 C 8.453125 -16.28125 8.59375 -16.1875 8.875 -16.1875 C 9.53125 -16.1875 10.535156 -16.207031 11.890625 -16.25 C 13.253906 -16.300781 14.109375 -16.359375 14.453125 -16.421875 Z M 14.453125 -16.421875 "/></g></g></g><g fill="#eaced1" fill-opacity="1"><g transform="translate(159.126923, 93.173662)"><g><path d="M 12.90625 -33.09375 C 15.625 -33.09375 17.640625 -32.5625 18.953125 -31.5 C 20.273438 -30.4375 20.96875 -29.875 21.03125 -29.8125 C 21.34375 -29.59375 21.5 -29.367188 21.5 -29.140625 C 21.5 -29.015625 21.4375 -28.890625 21.3125 -28.765625 C 21.21875 -28.640625 21.03125 -28.375 20.75 -27.96875 C 20.46875 -27.5625 20.25 -27.359375 20.09375 -27.359375 C 19.9375 -27.359375 19.734375 -27.4375 19.484375 -27.59375 L 19.15625 -27.875 C 16.769531 -29.601562 14.734375 -30.46875 13.046875 -30.46875 C 10.890625 -30.46875 9.253906 -29.972656 8.140625 -28.984375 C 7.035156 -27.992188 6.484375 -26.75 6.484375 -25.25 C 6.484375 -23.96875 6.941406 -22.875 7.859375 -21.96875 C 8.785156 -21.0625 10 -20.203125 11.5 -19.390625 C 11.9375 -19.203125 12.390625 -19.03125 12.859375 -18.875 C 14.421875 -18.28125 15.789062 -17.644531 16.96875 -16.96875 C 18.144531 -16.289062 19.203125 -15.269531 20.140625 -13.90625 C 21.078125 -12.550781 21.546875 -10.84375 21.546875 -8.78125 C 21.546875 -5.238281 20.335938 -2.816406 17.921875 -1.515625 C 15.515625 -0.222656 12.828125 0.421875 9.859375 0.421875 C 8.140625 0.421875 6.582031 0.03125 5.1875 -0.75 C 3.789062 -1.53125 2.796875 -2.21875 2.203125 -2.8125 C 1.890625 -3.09375 1.8125 -3.375 1.96875 -3.65625 C 2 -3.71875 2.128906 -3.96875 2.359375 -4.40625 C 2.597656 -4.84375 2.8125 -5.0625 3 -5.0625 L 3.09375 -5.0625 C 3.1875 -5.0625 3.269531 -5.035156 3.34375 -4.984375 C 3.425781 -4.941406 3.519531 -4.859375 3.625 -4.734375 C 3.738281 -4.609375 3.875 -4.46875 4.03125 -4.3125 C 4.4375 -3.90625 5.234375 -3.441406 6.421875 -2.921875 C 7.617188 -2.410156 8.609375 -2.15625 9.390625 -2.15625 C 11.046875 -2.15625 12.625 -2.503906 14.125 -3.203125 C 15.625 -3.910156 16.375 -5.410156 16.375 -7.703125 C 16.375 -8.671875 15.941406 -9.515625 15.078125 -10.234375 C 14.222656 -10.953125 12.890625 -11.796875 11.078125 -12.765625 L 9.0625 -13.890625 C 6.863281 -15.140625 5.144531 -16.484375 3.90625 -17.921875 C 2.675781 -19.367188 2.0625 -21.265625 2.0625 -23.609375 C 2.0625 -25.546875 2.613281 -27.234375 3.71875 -28.671875 C 4.832031 -30.117188 6.226562 -31.21875 7.90625 -31.96875 C 9.582031 -32.71875 11.25 -33.09375 12.90625 -33.09375 Z M 12.90625 -33.09375 "/></g></g></g><g fill="#aabf62" fill-opacity="1"><g transform="translate(52.022417, 42.171969)"><g><path d="M 3.84375 1.828125 C 5.914062 1.429688 8.015625 1.421875 10.140625 1.796875 C 10.597656 1.859375 10.992188 1.738281 11.328125 1.4375 C 12.566406 0.34375 13.71875 -0.828125 14.78125 -2.078125 C 15.84375 -3.328125 16.882812 -4.582031 17.90625 -5.84375 C 19.695312 -7.988281 21.34375 -10.226562 22.84375 -12.5625 C 24.34375 -14.90625 25.785156 -17.285156 27.171875 -19.703125 C 28.628906 -22.242188 30.171875 -24.71875 31.796875 -27.125 C 33.429688 -29.53125 35.226562 -31.820312 37.1875 -34 C 37.445312 -34.28125 37.71875 -34.554688 38 -34.828125 C 38.289062 -35.097656 38.578125 -35.351562 38.859375 -35.59375 C 39.140625 -35.832031 39.425781 -36.078125 39.71875 -36.328125 C 40.007812 -36.578125 40.285156 -36.84375 40.546875 -37.125 C 40.660156 -37.257812 40.78125 -37.375 40.90625 -37.46875 C 41.039062 -37.5625 41.207031 -37.609375 41.40625 -37.609375 C 41.550781 -37.609375 41.703125 -37.597656 41.859375 -37.578125 C 42.015625 -37.554688 42.132812 -37.484375 42.21875 -37.359375 C 42.320312 -37.203125 42.3125 -37.078125 42.1875 -36.984375 C 42.070312 -36.898438 41.972656 -36.816406 41.890625 -36.734375 C 41.085938 -35.753906 40.367188 -34.71875 39.734375 -33.625 C 39.109375 -32.539062 38.5 -31.4375 37.90625 -30.3125 C 37.820312 -30.132812 37.722656 -29.953125 37.609375 -29.765625 C 37.503906 -29.585938 37.398438 -29.398438 37.296875 -29.203125 C 37.203125 -29.046875 37.046875 -29 36.828125 -29.0625 C 36.722656 -29.113281 36.675781 -29.175781 36.6875 -29.25 C 36.695312 -29.320312 36.710938 -29.390625 36.734375 -29.453125 C 36.867188 -30.023438 37.0625 -30.570312 37.3125 -31.09375 C 37.5625 -31.613281 37.804688 -32.125 38.046875 -32.625 C 38.085938 -32.726562 38.140625 -32.820312 38.203125 -32.90625 C 38.265625 -33 38.285156 -33.125 38.265625 -33.28125 C 37.765625 -32.664062 37.269531 -32.066406 36.78125 -31.484375 C 36.289062 -30.898438 35.816406 -30.3125 35.359375 -29.71875 C 33.816406 -27.738281 32.378906 -25.6875 31.046875 -23.5625 C 29.722656 -21.445312 28.46875 -19.289062 27.28125 -17.09375 C 25.84375 -14.457031 24.289062 -11.898438 22.625 -9.421875 C 20.957031 -6.941406 19.15625 -4.5625 17.21875 -2.28125 C 16.550781 -1.476562 15.835938 -0.695312 15.078125 0.0625 C 14.316406 0.820312 13.488281 1.550781 12.59375 2.25 C 12.957031 2.332031 13.289062 2.414062 13.59375 2.5 C 13.90625 2.59375 14.210938 2.679688 14.515625 2.765625 C 15.609375 3.054688 16.695312 3.304688 17.78125 3.515625 C 18.863281 3.734375 19.972656 3.898438 21.109375 4.015625 C 22.566406 4.160156 24 4.125 25.40625 3.90625 C 26.820312 3.695312 28.226562 3.414062 29.625 3.0625 C 31.300781 2.675781 32.890625 2.109375 34.390625 1.359375 C 35.890625 0.609375 37.300781 -0.300781 38.625 -1.375 C 39.300781 -1.914062 39.972656 -2.457031 40.640625 -3 C 41.316406 -3.539062 41.960938 -4.117188 42.578125 -4.734375 C 42.773438 -4.929688 42.984375 -5.101562 43.203125 -5.25 C 43.429688 -5.445312 43.625 -5.4375 43.78125 -5.21875 C 43.863281 -5.132812 43.867188 -5.054688 43.796875 -4.984375 C 43.722656 -4.921875 43.664062 -4.867188 43.625 -4.828125 C 43.101562 -4.347656 42.609375 -3.828125 42.140625 -3.265625 C 41.671875 -2.703125 41.1875 -2.164062 40.6875 -1.65625 C 37.789062 1.226562 34.332031 3.117188 30.3125 4.015625 C 29.4375 4.210938 28.546875 4.390625 27.640625 4.546875 C 26.742188 4.710938 25.847656 4.828125 24.953125 4.890625 C 23.234375 5.046875 21.535156 4.984375 19.859375 4.703125 C 18.191406 4.421875 16.519531 4.070312 14.84375 3.65625 C 14.425781 3.539062 14.003906 3.421875 13.578125 3.296875 C 13.160156 3.179688 12.734375 3.070312 12.296875 2.96875 C 11.992188 2.882812 11.710938 2.9375 11.453125 3.125 C 10.648438 3.738281 9.804688 4.300781 8.921875 4.8125 C 8.046875 5.320312 7.09375 5.695312 6.0625 5.9375 C 5.519531 6.09375 4.96875 6.179688 4.40625 6.203125 C 3.84375 6.222656 3.273438 6.15625 2.703125 6 C 2.484375 5.9375 2.257812 5.851562 2.03125 5.75 C 1.8125 5.65625 1.601562 5.535156 1.40625 5.390625 C 0.507812 4.710938 0.441406 3.972656 1.203125 3.171875 C 1.578125 2.796875 1.984375 2.5 2.421875 2.28125 C 2.867188 2.0625 3.34375 1.910156 3.84375 1.828125 Z M 9.5625 2.421875 C 8.757812 2.304688 7.941406 2.265625 7.109375 2.296875 C 6.285156 2.328125 5.457031 2.410156 4.625 2.546875 C 4.238281 2.628906 3.867188 2.753906 3.515625 2.921875 C 3.171875 3.085938 2.859375 3.320312 2.578125 3.625 C 2.296875 3.925781 2.1875 4.222656 2.25 4.515625 C 2.3125 4.804688 2.519531 5.039062 2.875 5.21875 C 3.15625 5.351562 3.429688 5.40625 3.703125 5.375 C 3.972656 5.351562 4.25 5.320312 4.53125 5.28125 C 5.53125 5.039062 6.460938 4.675781 7.328125 4.1875 C 8.203125 3.695312 9.078125 3.140625 9.953125 2.515625 C 9.859375 2.492188 9.78125 2.476562 9.71875 2.46875 C 9.65625 2.457031 9.601562 2.441406 9.5625 2.421875 Z M 9.5625 2.421875 "/></g></g></g><g fill="#aabf62" fill-opacity="1"><g transform="translate(94.209828, 42.171969)"><g><path d="M 2.28125 -1.046875 C 2.257812 -1.148438 2.25 -1.269531 2.25 -1.40625 C 2.25 -1.550781 2.21875 -1.703125 2.15625 -1.859375 C 1.957031 -1.660156 1.765625 -1.472656 1.578125 -1.296875 C 1.398438 -1.128906 1.222656 -0.957031 1.046875 -0.78125 C 0.804688 -0.519531 0.523438 -0.300781 0.203125 -0.125 C -0.210938 0.0625 -0.632812 0.0507812 -1.0625 -0.15625 C -1.488281 -0.375 -1.703125 -0.710938 -1.703125 -1.171875 C -1.722656 -2.523438 -1.457031 -3.742188 -0.90625 -4.828125 C -0.363281 -5.910156 0.488281 -6.820312 1.65625 -7.5625 C 2.164062 -7.875 2.660156 -8.007812 3.140625 -7.96875 C 3.628906 -7.9375 4.113281 -7.78125 4.59375 -7.5 C 4.726562 -7.414062 4.851562 -7.335938 4.96875 -7.265625 C 5.09375 -7.203125 5.242188 -7.207031 5.421875 -7.28125 C 5.523438 -7.320312 5.625 -7.3125 5.71875 -7.25 C 5.820312 -7.195312 5.914062 -7.148438 6 -7.109375 C 6.351562 -6.960938 6.550781 -6.804688 6.59375 -6.640625 C 6.632812 -6.472656 6.566406 -6.21875 6.390625 -5.875 C 6.148438 -5.457031 5.898438 -5.035156 5.640625 -4.609375 C 5.378906 -4.191406 5.160156 -3.753906 4.984375 -3.296875 C 4.535156 -2.160156 4.320312 -1.03125 4.34375 0.09375 C 4.34375 0.613281 4.4375 1.101562 4.625 1.5625 C 4.800781 1.976562 5.140625 2.207031 5.640625 2.25 C 6.140625 2.25 6.609375 2.171875 7.046875 2.015625 C 7.484375 1.867188 7.90625 1.6875 8.3125 1.46875 C 8.863281 1.207031 9.570312 0.820312 10.4375 0.3125 C 11.3125 -0.195312 12.257812 -0.757812 13.28125 -1.375 C 14.300781 -2 15.328125 -2.609375 16.359375 -3.203125 C 17.390625 -3.804688 18.351562 -4.34375 19.25 -4.8125 C 20.144531 -5.28125 20.90625 -5.609375 21.53125 -5.796875 C 22.164062 -5.992188 22.566406 -5.988281 22.734375 -5.78125 C 22.734375 -5.78125 22.757812 -5.703125 22.8125 -5.546875 C 22 -5.460938 21.085938 -5.175781 20.078125 -4.6875 C 19.066406 -4.195312 18.007812 -3.601562 16.90625 -2.90625 C 15.8125 -2.207031 14.71875 -1.488281 13.625 -0.75 C 12.539062 -0.0078125 11.515625 0.664062 10.546875 1.28125 C 9.585938 1.90625 8.722656 2.378906 7.953125 2.703125 C 7.023438 3.097656 6.070312 3.164062 5.09375 2.90625 C 4.113281 2.644531 3.335938 1.992188 2.765625 0.953125 C 2.617188 0.640625 2.507812 0.316406 2.4375 -0.015625 C 2.375 -0.347656 2.320312 -0.691406 2.28125 -1.046875 Z M 0.453125 -1.4375 C 1.210938 -2.09375 1.863281 -2.828125 2.40625 -3.640625 C 2.957031 -4.453125 3.492188 -5.269531 4.015625 -6.09375 C 4.097656 -6.226562 4.117188 -6.34375 4.078125 -6.4375 C 4.035156 -6.539062 3.984375 -6.632812 3.921875 -6.71875 C 3.847656 -6.832031 3.765625 -6.890625 3.671875 -6.890625 C 3.578125 -6.890625 3.484375 -6.863281 3.390625 -6.8125 C 3.265625 -6.726562 3.128906 -6.65625 2.984375 -6.59375 C 2.835938 -6.53125 2.710938 -6.441406 2.609375 -6.328125 C 2.003906 -5.804688 1.484375 -5.226562 1.046875 -4.59375 C 0.609375 -3.96875 0.238281 -3.273438 -0.0625 -2.515625 C -0.15625 -2.296875 -0.234375 -2.050781 -0.296875 -1.78125 C -0.359375 -1.507812 -0.390625 -1.1875 -0.390625 -0.8125 C -0.210938 -0.945312 -0.0546875 -1.0625 0.078125 -1.15625 C 0.222656 -1.257812 0.347656 -1.351562 0.453125 -1.4375 Z M 0.453125 -1.4375 "/></g></g></g><g fill="#aabf62" fill-opacity="1"><g transform="translate(116.233418, 42.171969)"><g><path d="M 3.84375 3.296875 C 4.039062 2.753906 4.359375 2.273438 4.796875 1.859375 C 5.117188 1.554688 5.304688 1.148438 5.359375 0.640625 C 5.421875 0.128906 5.332031 -0.3125 5.09375 -0.6875 C 4.9375 -0.96875 4.707031 -1.078125 4.40625 -1.015625 C 3.988281 -0.921875 3.582031 -0.816406 3.1875 -0.703125 C 2.800781 -0.597656 2.425781 -0.484375 2.0625 -0.359375 C 1.664062 -0.222656 1.269531 -0.125 0.875 -0.0625 C 0.488281 0 0.0859375 -0.0078125 -0.328125 -0.09375 C -0.367188 -0.113281 -0.441406 -0.125 -0.546875 -0.125 C -1.859375 -0.4375 -2.328125 -1.234375 -1.953125 -2.515625 C -1.492188 -3.992188 -0.8125 -5.363281 0.09375 -6.625 C 0.394531 -7.039062 0.726562 -7.421875 1.09375 -7.765625 C 1.46875 -8.109375 1.875 -8.410156 2.3125 -8.671875 C 2.769531 -8.929688 3.25 -9.109375 3.75 -9.203125 C 4.25 -9.304688 4.757812 -9.304688 5.28125 -9.203125 C 6.175781 -8.984375 6.75 -8.601562 7 -8.0625 C 7.25 -7.519531 7.316406 -6.851562 7.203125 -6.0625 C 7.179688 -5.9375 7.140625 -5.816406 7.078125 -5.703125 C 7.015625 -5.597656 6.894531 -5.523438 6.71875 -5.484375 C 6.476562 -5.441406 6.285156 -5.484375 6.140625 -5.609375 C 6.003906 -5.742188 5.945312 -5.953125 5.96875 -6.234375 C 6.007812 -6.492188 6.015625 -6.75 5.984375 -7 C 5.953125 -7.25 5.882812 -7.484375 5.78125 -7.703125 C 5.582031 -8.046875 5.382812 -8.25 5.1875 -8.3125 C 4.988281 -8.382812 4.707031 -8.332031 4.34375 -8.15625 C 3.800781 -7.894531 3.335938 -7.5625 2.953125 -7.15625 C 2.566406 -6.757812 2.203125 -6.332031 1.859375 -5.875 C 1.492188 -5.375 1.164062 -4.835938 0.875 -4.265625 C 0.59375 -3.703125 0.332031 -3.117188 0.09375 -2.515625 C 0.03125 -2.335938 -0.0195312 -2.148438 -0.0625 -1.953125 C -0.101562 -1.753906 -0.125 -1.550781 -0.125 -1.34375 C -0.101562 -1.125 -0.0546875 -0.976562 0.015625 -0.90625 C 0.0859375 -0.84375 0.234375 -0.832031 0.453125 -0.875 C 0.734375 -0.96875 1.007812 -1.054688 1.28125 -1.140625 C 1.5625 -1.222656 1.84375 -1.3125 2.125 -1.40625 C 2.320312 -1.46875 2.507812 -1.523438 2.6875 -1.578125 C 2.875 -1.628906 3.066406 -1.691406 3.265625 -1.765625 C 3.367188 -1.785156 3.476562 -1.804688 3.59375 -1.828125 C 3.71875 -1.847656 3.835938 -1.859375 3.953125 -1.859375 C 4.710938 -1.941406 5.304688 -1.863281 5.734375 -1.625 C 6.171875 -1.382812 6.566406 -0.921875 6.921875 -0.234375 C 7.285156 -0.554688 7.640625 -0.867188 7.984375 -1.171875 C 8.335938 -1.472656 8.6875 -1.769531 9.03125 -2.0625 C 9.363281 -2.34375 9.703125 -2.613281 10.046875 -2.875 C 10.398438 -3.132812 10.75 -3.375 11.09375 -3.59375 C 11.195312 -3.65625 11.296875 -3.710938 11.390625 -3.765625 C 11.492188 -3.816406 11.59375 -3.867188 11.6875 -3.921875 C 11.789062 -3.960938 11.894531 -3.976562 12 -3.96875 C 12.113281 -3.957031 12.191406 -3.894531 12.234375 -3.78125 C 12.273438 -3.675781 12.257812 -3.59375 12.1875 -3.53125 C 12.113281 -3.476562 12.039062 -3.429688 11.96875 -3.390625 C 11.0625 -2.742188 10.195312 -2.039062 9.375 -1.28125 C 8.5625 -0.53125 7.753906 0.222656 6.953125 0.984375 C 6.859375 1.085938 6.765625 1.195312 6.671875 1.3125 C 6.578125 1.4375 6.503906 1.578125 6.453125 1.734375 C 6.328125 2.117188 6.144531 2.472656 5.90625 2.796875 C 5.664062 3.128906 5.414062 3.457031 5.15625 3.78125 C 5.09375 3.875 5.015625 3.953125 4.921875 4.015625 C 4.835938 4.078125 4.738281 4.117188 4.625 4.140625 C 4.476562 4.160156 4.328125 4.175781 4.171875 4.1875 C 4.023438 4.195312 3.894531 4.140625 3.78125 4.015625 C 3.675781 3.898438 3.648438 3.773438 3.703125 3.640625 C 3.753906 3.515625 3.800781 3.398438 3.84375 3.296875 Z M 3.84375 3.296875 "/></g></g></g></svg>